<svg width="334" height="453" viewBox="0 0 334 453" fill="none" xmlns="http://www.w3.org/2000/svg">
<g opacity="0.4">
<path d="M333.212 233.636C331.212 300.336 305.012 356.236 250.812 398.036C244.112 403.036 236.912 407.236 229.312 410.536C208.512 420.036 188.112 416.136 171.312 400.436C155.512 385.736 144.312 367.736 134.012 349.136C116.712 318.136 100.312 286.636 82.9119 255.636C67.7119 228.536 49.9119 202.836 29.9119 179.036C16.3119 162.736 6.01192 144.636 1.71192 123.536C-4.98808 90.9363 8.21192 61.3363 37.2119 42.9363C55.1119 31.6363 74.8119 25.3363 95.7119 22.9363C140.312 17.8363 182.012 27.7363 221.512 48.0363C262.212 69.0363 292.812 100.036 312.712 141.336C323.612 163.936 330.112 188.336 332.012 213.236C332.512 219.636 332.812 225.936 333.212 233.636Z" fill="#F2F6FA"/>
</g>
<path d="M130.267 378.123C131.267 403.123 137.067 434.823 164.767 445.623C176.267 450.323 190.267 450.623 201.967 447.123C211.267 444.423 222.267 437.723 221.167 428.223C217.167 413.023 191.167 410.223 177.567 411.723C162.767 413.223 157.267 420.123 170.867 422.723C186.667 425.523 212.967 420.223 220.667 409.323C226.067 400.323 218.467 393.823 207.767 388.923C196.267 383.823 179.767 381.823 167.567 383.223C162.067 384.023 153.067 385.423 154.967 390.723C159.367 396.323 169.867 397.023 177.267 397.423C193.267 397.723 223.467 392.023 225.967 378.523C223.367 364.423 186.667 366.223 173.467 364.623C157.167 363.423 140.867 359.723 128.667 349.023C107.367 330.423 104.867 297.023 96.667 271.523C81.467 223.423 52.167 177.923 54.967 125.723C57.967 12.4227 198.567 -39.5773 273.467 44.5227C299.667 75.6227 312.067 118.523 303.067 158.523C295.467 194.123 274.667 225.123 262.767 258.923C258.767 270.023 255.967 281.523 253.967 293.123C250.867 311.423 249.567 334.123 233.467 345.823C218.567 357.123 186.767 354.923 175.667 340.123C157.967 301.823 179.067 204.023 204.467 153.723C209.967 144.123 217.567 136.323 223.567 134.423C233.667 131.923 232.067 142.223 225.367 149.023C213.967 161.923 185.667 167.923 175.567 150.223C170.867 143.223 170.167 130.623 172.867 125.823C174.167 122.923 177.067 121.823 178.867 125.323C182.267 132.323 180.567 141.623 176.567 148.423C170.067 159.723 155.667 164.223 143.167 160.123C133.967 157.323 125.667 150.123 122.067 141.723C120.467 137.423 119.067 132.323 123.067 129.923C126.567 128.523 132.667 133.723 138.767 142.823C150.767 159.623 158.167 187.423 161.667 209.323" stroke="#85B2EC" stroke-width="5.33" stroke-miterlimit="10"/>
</svg>
