<svg width="229" height="330" viewBox="0 0 229 330" fill="none" xmlns="http://www.w3.org/2000/svg">
<path d="M1 1.29883C3.3673 1.53016 4.50613 1.95046 6.37684 2.89945" stroke="#F6AD8C" stroke-linecap="round"/>
<path d="M28 11.2852C31.7159 12.5046 33.5109 13.4239 36.4655 15.2125" stroke="#F6AD8C" stroke-width="1.5" stroke-linecap="round"/>
<path d="M55 25.4814C59.1159 27.3239 60.9123 28.7634 63.7093 31.5906" stroke="#F6AD8C" stroke-width="2" stroke-linecap="round"/>
<path d="M78.4751 45.5928C82.8581 48.3547 84.7547 50.2157 87.693 53.7183" stroke="#F6AD8C" stroke-width="3" stroke-linecap="round"/>
<path d="M99.9912 68.2344C103.594 72.107 105.113 74.3722 107.428 78.4295" stroke="#F6AD8C" stroke-width="4" stroke-linecap="round"/>
<path d="M116 95.1934C118.708 99.4882 119.687 101.911 121.025 106.189" stroke="#F6AD8C" stroke-width="4.5" stroke-linecap="round"/>
<path d="M125.504 122.991C126.878 128.326 127.127 131.154 127.19 136.018" stroke="#F6AD8C" stroke-width="5" stroke-linecap="round"/>
<path d="M126.574 153C125.842 158.076 125.013 160.583 123.25 164.754" stroke="#F6AD8C" stroke-width="5.5" stroke-linecap="round"/>
<path d="M112.507 180C108.947 183.403 106.826 184.79 103 186.857" stroke="#F6AD8C" stroke-width="5.5" stroke-linecap="round"/>
<path d="M82.4194 191.135C77.4353 190.85 75.0449 189.998 71.1243 188" stroke="#F6AD8C" stroke-width="6" stroke-linecap="round"/>
<path d="M57.2207 174.645C55.7165 169.884 55.6639 167.347 56.1389 162.972" stroke="#F6AD8C" stroke-width="6.5" stroke-linecap="round"/>
<path d="M63.3555 145.406C66.2261 141.894 68.0727 140.487 71.4958 138.414" stroke="#F6AD8C" stroke-width="6.5" stroke-linecap="round"/>
<path d="M91.9927 130.452C96.9612 129.109 99.5988 128.958 104.138 129.122" stroke="#F6AD8C" stroke-width="6.5" stroke-linecap="round"/>
<path d="M123 130.542C128.51 130.339 131.31 130.779 136.034 131.952" stroke="#F6AD8C" stroke-width="6.5" stroke-linecap="round"/>
<path d="M155 138.177C159.005 139.917 160.991 140.998 164.304 142.977" stroke="#F6AD8C" stroke-width="6.5" stroke-linecap="round"/>
<path d="M182 154.261C185.616 156.744 187.264 158.294 189.894 161.137" stroke="#F6AD8C" stroke-width="6" stroke-linecap="round"/>
<path d="M205 177.183C207.735 180.612 208.859 182.575 210.547 186.062" stroke="#F6AD8C" stroke-width="5.5" stroke-linecap="round"/>
<path d="M219 202.16C221.287 206.566 222.012 209.014 222.888 213.308" stroke="#F6AD8C" stroke-width="5" stroke-linecap="round"/>
<path d="M226.518 232.976C226.75 237.528 226.748 239.891 226.649 243.918" stroke="#F6AD8C" stroke-width="4.5" stroke-linecap="round"/>
<path d="M224.39 263.444C224.541 267.871 224.116 270.101 223 273.846" stroke="#F6AD8C" stroke-width="4" stroke-linecap="round"/>
<path d="M216.277 293C215.169 297.289 214.13 299.307 212 302.583" stroke="#F6AD8C" stroke-width="3" stroke-linecap="round"/>
<path d="M201.322 319C199.529 323.013 198.307 324.923 196 328.045" stroke="#F6AD8C" stroke-width="2" stroke-linecap="round"/>
</svg>
