<svg width="119" height="108" viewBox="0 0 119 108" fill="none" xmlns="http://www.w3.org/2000/svg">
<path d="M89.1204 36.3891L98.7008 54.2556L69.6591 58.3264L40.6174 62.3971L60.0788 40.4598L79.5401 18.5225L89.1204 36.3891Z" fill="#FFC107"/>
<path fill-rule="evenodd" clip-rule="evenodd" d="M39.0007 63.2646C38.7588 62.8134 38.8837 62.2155 39.3232 61.72L78.2459 17.8454C78.6481 17.392 79.2538 17.0926 79.8468 17.054C80.4398 17.0156 80.9356 17.2433 81.1569 17.6561L100.318 53.3893C100.539 53.8021 100.454 54.341 100.094 54.8137C99.7338 55.2863 99.1492 55.6251 98.5491 55.7092L40.4657 63.8507C39.8098 63.9426 39.2426 63.7158 39.0007 63.2646ZM44.2327 60.4591L96.0507 53.1959L78.9568 21.3172L44.2327 60.4591Z" fill="#FFC107"/>
<g clip-path="url(#clip0_3_147)">
<path d="M44.9999 21L49.507 23.2535C49.7712 23.3856 49.8639 23.7166 49.7068 23.9667L44.1074 32.8794L38.9962 40.5122C38.7147 40.9327 38.0583 40.7168 38.0813 40.2113L38.5 31L39 24.5L39.4407 18.7708C39.4685 18.4091 39.8601 18.1964 40.1786 18.3701L44.9999 21Z" fill="#FFC107"/>
</g>
<path d="M10.2414 36.7412L15.1114 32.5324L16.7596 39.3613L18.4079 46.1903L11.8897 43.5702L5.37151 40.9501L10.2414 36.7412Z" fill="#FFC107"/>
<path fill-rule="evenodd" clip-rule="evenodd" d="M18.6804 46.5051C18.5574 46.6114 18.3868 46.6411 18.2395 46.582L5.20315 41.3417C5.06844 41.2876 4.9736 41.167 4.9525 41.023C4.93144 40.879 4.98705 40.7322 5.09958 40.635L14.8395 32.2172C14.952 32.1199 15.1053 32.0862 15.2447 32.1279C15.3841 32.1696 15.4897 32.2809 15.5238 32.422L18.8203 46.08C18.8575 46.2343 18.8034 46.3988 18.6804 46.5051ZM17.7995 45.4858L14.8586 33.3011L6.16931 40.8109L17.7995 45.4858Z" fill="#FFC107"/>
<g clip-path="url(#clip1_3_147)">
<path d="M103.5 78L102.087 82.7099C102.039 82.8697 101.87 82.9597 101.711 82.9102L87.5 78.5L72.3696 73.4567C72.0609 73.3538 72.114 72.9018 72.4381 72.8732L88 71.5001L105.081 70.036C105.287 70.0184 105.448 70.2079 105.398 70.4077L103.5 78Z" fill="#FFC107"/>
</g>
<g clip-path="url(#clip2_3_147)">
<path d="M73.8761 100.87L71.9178 103.08C71.833 103.176 71.6814 103.169 71.6062 103.065L67.4069 97.2781L62.929 90.3672C62.8117 90.1861 63.0247 89.9732 63.2057 90.0907L69.9998 94.5L75.8077 98.3456C75.909 98.4127 75.9276 98.554 75.847 98.645L73.8761 100.87Z" fill="#FFC107"/>
</g>
<defs>
<clipPath id="clip0_3_147">
<rect width="20.5974" height="37.9813" fill="white" transform="translate(44.4224 53.6719) rotate(-160.555)"/>
</clipPath>
<clipPath id="clip1_3_147">
<rect width="22.245" height="57.0181" fill="white" transform="translate(57.8076 83.7344) rotate(-83.4169)"/>
</clipPath>
<clipPath id="clip2_3_147">
<rect width="10.2477" height="23.117" fill="white" transform="translate(57 92.6709) rotate(-48.4638)"/>
</clipPath>
</defs>
</svg>
