<svg width="513" height="313" viewBox="0 0 513 313" fill="none" xmlns="http://www.w3.org/2000/svg">
<path d="M427.764 235.2L423.791 235.774L423.493 239.777C421.082 272.141 386.853 299.417 342.838 299.417C321.621 299.417 302.427 292.99 288.095 282.611L284.385 279.925L281.385 283.385C268.651 298.07 247.051 308 222.216 308C192.917 308 168.25 294.217 157.153 275.182L154.958 271.415L150.927 273.078C143.4 276.184 134.805 277.959 125.647 277.959C96.2947 277.959 73.8479 260.101 71.6074 239.307L71.2054 235.576L67.5105 234.92C30.8919 228.416 5 202.736 5 173.523C5 139.755 39.815 110.573 85.2605 110.573C89.7724 110.573 94.1972 110.87 98.5036 111.435L102.492 111.958L103.857 108.174C110.965 88.4648 134.328 73.0933 163.162 73.0933C167.415 73.0933 171.563 73.4326 175.567 74.0746L180.146 74.809L181.222 70.297C189.919 33.8092 230.74 5 281.27 5C336.104 5 379.284 38.8028 382.823 79.5921L383.294 85.0236L388.665 84.0853C395.523 82.887 402.649 82.2487 409.969 82.2487C465.23 82.2483 508 117.77 508 159.361C508 196.358 474.295 228.473 427.764 235.2Z" fill="white" stroke="#FFC107" stroke-width="10"/>
<path d="M247.318 236.665C247.318 236.665 247.32 236.666 247.322 236.667C247.319 236.666 247.318 236.665 247.318 236.665ZM247.322 238.554C247.322 238.554 247.322 238.554 247.324 238.553C247.322 238.554 247.322 238.554 247.322 238.554ZM255.546 239.279C268.432 240.243 281.692 239.178 293.818 236.171C290.009 237.757 283.962 239.557 275.212 240.234C266.721 240.892 260.214 240.24 255.546 239.279Z" fill="#F0F5F9" stroke="#FFC107" stroke-width="5"/>
<path d="M413.712 187.703C413.711 187.703 413.711 187.704 413.711 187.704C413.713 187.706 413.814 187.609 414.082 187.517C414.385 187.413 414.711 187.385 414.959 187.422L415.236 187.464C414.414 190.186 411.77 195.592 403.199 202.156C394.894 208.516 386.977 211.65 381.451 213.187C394.964 206.442 406.294 197.569 413.712 187.703ZM413.712 187.703C413.713 187.701 413.717 187.696 413.724 187.686L413.724 187.686C413.72 187.692 413.716 187.697 413.712 187.703ZM416.027 187.597C416.027 187.597 416.025 187.596 416.022 187.594C416.025 187.596 416.027 187.597 416.027 187.597ZM375.086 216.174C375.086 216.174 375.086 216.174 375.087 216.173C375.086 216.174 375.086 216.174 375.086 216.174Z" fill="#F0F5F9" stroke="#FFC107" stroke-width="5"/>
<path d="M140.061 223.956C140.06 223.957 140.059 223.958 140.059 223.958C140.059 223.958 140.06 223.957 140.061 223.956ZM144.308 225.249C155.853 229.529 169.039 231.913 182.298 232.15C177.859 232.653 171.668 232.79 163.945 231.578C154.136 230.037 147.976 227.422 144.308 225.249ZM188.821 232.2C188.821 232.2 188.821 232.2 188.819 232.199C188.821 232.2 188.821 232.2 188.821 232.2ZM188.939 230.892C188.939 230.892 188.938 230.893 188.935 230.894C188.938 230.893 188.939 230.892 188.939 230.892Z" fill="#F0F5F9" stroke="#FFC107" stroke-width="5"/>
<path d="M177.974 161.797C177.975 161.762 177.976 161.726 177.976 161.69M177.974 161.797C177.954 162.915 179.347 163.832 181.089 163.849M177.974 161.797L177.974 161.797L177.974 161.797ZM177.976 161.69L181.114 161.349C182.829 161.367 184.545 161.449 186.252 161.594C184.533 161.749 182.818 161.942 181.106 162.167M177.976 161.69C177.993 160.734 179.05 159.917 180.51 159.724L177.976 161.69ZM181.089 163.849L181.106 162.167M181.089 163.849L181.106 162.167M181.089 163.849L181.106 162.167M181.106 162.167C181.106 162.167 181.106 162.167 181.106 162.167M181.106 162.167L181.106 162.167M181.106 162.167C181.017 162.178 180.928 162.19 180.839 162.202L180.839 162.202C180.66 162.226 180.515 162.266 180.408 162.307C180.299 162.35 180.246 162.387 180.234 162.397C180.232 162.398 180.232 162.398 180.232 162.398C180.232 162.398 180.28 162.359 180.336 162.262C180.393 162.164 180.45 162.02 180.469 161.842C180.469 161.841 180.47 161.839 180.47 161.838C180.471 161.822 180.473 161.806 180.474 161.79M181.106 162.167L180.474 161.79M180.474 161.79C180.474 161.806 180.474 161.822 180.474 161.838C180.474 161.838 180.474 161.838 180.474 161.838L180.474 161.838C180.475 161.801 180.475 161.775 180.476 161.751L180.476 161.743L180.476 161.735C180.476 161.74 180.476 161.746 180.476 161.751C180.475 161.764 180.475 161.777 180.474 161.79ZM180.227 161.135C180.227 161.135 180.228 161.136 180.23 161.137C180.228 161.136 180.227 161.135 180.227 161.135ZM224.073 201.825C229.103 192.15 226.362 181.023 217.265 173.172L231.546 185C231.285 190.522 228.807 196.053 225.248 201.655C225.205 201.681 225.127 201.719 225.009 201.755C224.747 201.835 224.41 201.868 224.073 201.825ZM225.192 201.744C225.192 201.744 225.192 201.744 225.192 201.743C225.192 201.744 225.192 201.744 225.192 201.744L225.192 201.744Z" fill="#F0F5F9" stroke="#FFC107" stroke-width="5"/>
<path d="M362.195 147.46C364.3 148.445 366.298 149.515 368.222 150.649C356.501 146.107 341.598 145.071 328.78 148.14L328.78 148.14C314.856 151.475 303.411 159.699 299.822 169.791C299.798 169.802 299.77 169.814 299.737 169.826C299.448 169.934 299.018 169.987 298.587 169.907L298.566 169.902L298.514 169.892C298.506 169.891 298.498 169.889 298.49 169.887C300.217 164.317 302.783 159.006 307.209 154.311C313.221 147.939 323.404 142.646 335.198 141.925L335.198 141.925C344.74 141.341 354.338 143.78 362.195 147.46L362.195 147.46ZM371 151.262L371.03 151.214L371 151.262Z" fill="#F0F5F9" stroke="#FFC107" stroke-width="5"/>
<path d="M275.091 110.558C287.321 113.201 303.68 114.396 319.372 114.126C306.109 116.261 291.972 116.216 278.854 113.742C265.991 111.313 254.372 106.601 245.238 100.474C254.31 104.821 264.412 108.249 275.091 110.558L275.091 110.558Z" fill="#F0F5F9" stroke="#FFC107" stroke-width="5"/>
<path d="M109.592 186.91C113.694 183.377 117.192 179.522 119.953 175.424L119.953 175.424C124.874 168.117 127.699 157.911 127.972 148.447C131.168 156.15 130.653 164.428 126.19 171.836C122.76 177.525 116.979 182.731 109.592 186.91ZM126.201 144.879L126.201 144.879L126.201 144.879Z" fill="#F0F5F9" stroke="#FFC107" stroke-width="5"/>
</svg>
