<svg width="154" height="270" viewBox="0 0 154 270" fill="none" xmlns="http://www.w3.org/2000/svg">
<path d="M104.049 227.117C103.124 224.412 101.826 221.83 100.182 219.491C98.52 217.125 96.508 215.063 94.211 213.314C91.978 211.617 89.487 210.273 86.831 209.366C84.138 208.446 81.258 208.101 78.423 208.131C77.17 208.143 75.922 208.25 74.676 208.384C74.376 207.215 73.299 206.332 72.047 206.329C72.035 206.329 72.023 206.329 72.011 206.329C70.163 206.329 68.281 206.546 66.521 207.109C65.895 207.31 65.287 207.56 64.681 207.81C63.926 208.123 63.177 208.443 62.449 208.815C61.084 209.512 59.84 210.366 58.632 211.306C57.589 212.118 56.619 213.003 55.703 213.956C54.6 215.105 53.636 216.376 52.665 217.635C50.938 219.878 49.465 222.291 48.193 224.819C47.546 226.106 46.992 227.442 46.494 228.794C45.992 230.153 45.632 231.545 45.434 232.979C45.017 235.98 44.919 238.988 45.253 242.002C45.573 244.881 46.208 247.701 47.259 250.404C47.786 251.757 48.41 253.068 49.127 254.331C49.893 255.682 50.817 256.925 51.787 258.134C53.564 260.35 55.698 262.23 57.99 263.893C60.343 265.6 62.99 266.874 65.727 267.835C68.452 268.793 71.365 269.268 74.251 269.314C75.675 269.337 77.093 269.18 78.5 268.98C79.929 268.777 81.332 268.467 82.725 268.094C88.168 266.633 93.251 263.691 97.105 259.563C98.08 258.518 98.949 257.372 99.765 256.201C100.605 254.995 101.381 253.741 102.087 252.454C103.469 249.926 104.484 247.202 105.132 244.399C105.468 242.95 105.699 241.479 105.87 240.002C106.042 238.502 106.002 236.991 105.871 235.488C105.627 232.644 104.973 229.814 104.049 227.117ZM57.373 227.532C58.643 224.557 60.103 221.657 62.067 219.076C63.043 217.846 64.127 216.704 65.308 215.67C67.143 215.88 68.979 216.074 70.817 216.255C71.121 216.285 71.433 216.285 71.738 216.299C72.336 216.328 72.935 216.357 73.532 216.386C74.156 216.416 74.776 216.426 75.4 216.431C76.313 216.442 77.224 216.452 78.137 216.462C79.148 216.473 80.16 216.493 81.169 216.535C82.252 216.579 83.336 216.683 84.413 216.819C86.301 217.099 88.15 217.592 89.918 218.31C91.678 219.092 93.336 220.079 94.877 221.232C96.071 222.178 97.183 223.229 98.139 224.416C98.755 225.257 99.276 226.153 99.704 227.103C100.162 228.295 100.441 229.554 100.627 230.816C100.715 231.544 100.785 232.275 100.817 233.006C100.845 233.677 100.875 234.348 100.905 235.019C100.989 236.965 100.923 238.909 100.69 240.842C100.388 242.905 99.851 244.908 99.068 246.84C98.219 248.777 97.164 250.61 95.896 252.302C95.031 253.378 94.068 254.368 92.998 255.24C90.672 256.953 87.997 258.09 85.379 259.277C84.42 259.662 83.464 260.051 82.506 260.438C81.582 260.812 80.628 261.122 79.675 261.413C78.324 261.824 76.94 262.135 75.544 262.345C73.534 262.591 71.506 262.631 69.492 262.406C68.137 262.198 66.82 261.843 65.548 261.336C64.069 260.655 62.681 259.759 61.381 258.78C59.993 257.676 58.737 256.433 57.629 255.049C56.726 253.846 55.962 252.57 55.348 251.196C54.73 249.664 54.33 248.079 54.088 246.446C53.95 245.285 53.896 244.12 53.903 242.952C53.911 241.711 54.035 240.471 54.191 239.241C54.748 235.221 55.819 231.28 57.373 227.532ZM86.657 213.105C87.28 213.379 87.885 213.687 88.482 214.01C87.702 213.774 86.912 213.572 86.116 213.411C84.94 213.171 83.739 213.034 82.548 212.902C81.358 212.77 80.165 212.71 78.97 212.656C77.966 212.61 76.964 212.568 75.959 212.525C75.287 212.497 74.613 212.484 73.942 212.431C73.094 212.366 72.248 212.302 71.4 212.237C72.006 212.123 72.616 212.022 73.229 211.935C76 211.585 78.806 211.415 81.587 211.742C83.324 212.009 85.022 212.458 86.657 213.105ZM50.745 234.352C50.877 233.506 51.056 232.677 51.294 231.85C51.553 230.951 51.884 230.071 52.239 229.204C53.571 226.189 55.302 223.354 57.289 220.728C57.978 219.849 58.685 218.986 59.447 218.169C60.243 217.316 61.105 216.528 62.014 215.798C62.165 215.687 62.32 215.585 62.473 215.478C62.012 215.911 61.565 216.356 61.136 216.813C59.622 218.425 58.341 220.277 57.235 222.188C56.103 224.144 55.135 226.201 54.261 228.283C53.37 230.4 52.68 232.605 52.124 234.831C51.551 237.124 51.157 239.474 50.95 241.828C50.899 242.409 50.869 242.991 50.86 243.572C50.809 243.283 50.762 242.993 50.719 242.702C50.385 239.921 50.424 237.134 50.745 234.352Z" fill="#FDD483"/>
<path d="M153.853 58.0501C153.754 56.0811 153.537 54.1161 153.347 52.1541C153.252 51.1621 153.138 50.1722 153.027 49.1812C152.898 48.0042 152.7 46.8341 152.522 45.6621C152.378 44.7171 152.131 43.7811 151.929 42.8471C151.842 42.4431 151.706 42.0452 151.595 41.6482C151.453 41.1422 151.311 40.6341 151.169 40.1281C150.888 39.1281 150.555 38.1421 150.249 37.1501C149.946 36.1681 149.629 35.1901 149.319 34.2101C149.028 33.2871 148.711 32.3731 148.405 31.4551C148.28 31.0771 148.134 30.7062 147.997 30.3322C147.838 29.8982 147.693 29.4562 147.517 29.0302C147.068 27.9452 146.643 26.8522 146.112 25.8062C145.85 25.2862 145.587 24.7672 145.324 24.2462C145.131 23.8642 144.892 23.5012 144.674 23.1312C144.147 22.2302 143.605 21.3512 143.036 20.4752C142.509 19.6662 141.941 18.8882 141.377 18.1042C140.995 17.5742 140.567 17.0692 140.159 16.5572C139.646 15.9132 139.123 15.2822 138.574 14.6652C137.732 13.7212 136.811 12.8502 135.813 12.0712C134.578 11.1062 133.302 10.2012 131.911 9.47415C130.118 8.53715 128.202 7.87016 126.29 7.22516C125.319 6.89716 124.337 6.60915 123.353 6.31815C122.48 6.06115 121.589 5.86314 120.706 5.64114C120.233 5.52114 119.739 5.45215 119.259 5.35815C118.818 5.27315 118.379 5.17314 117.935 5.10214C113.96 4.45514 109.972 3.88114 105.997 3.22714C104.078 2.91114 102.164 2.56715 100.244 2.26215C99.1629 2.08915 98.0839 1.93514 96.9969 1.80414C96.2299 1.67314 95.4599 1.54016 94.6889 1.46716C93.4549 1.35116 92.2219 1.23414 90.9899 1.11914C90.2779 1.05114 89.5708 0.977156 88.8578 0.953156C87.5398 0.912156 86.2239 0.869148 84.9059 0.827148C84.4639 0.813148 84.0218 0.806152 83.5788 0.806152C81.9748 0.806152 80.3708 0.89716 78.7768 1.07016C75.8098 1.39416 72.8839 1.95716 69.9999 2.71616C68.6179 3.08016 67.2689 3.50515 65.9109 3.94415C65.2639 4.15315 64.6169 4.36217 63.9689 4.57117C63.6879 4.66217 63.3929 4.73914 63.1189 4.84814C62.0289 5.28414 60.9399 5.71817 59.8509 6.15317C57.7529 6.99217 55.6939 7.91015 53.6279 8.82715C51.9329 9.57815 50.2929 10.4562 48.6319 11.2822C48.3159 11.4382 48.0118 11.6281 47.7038 11.8001C47.0588 12.1601 46.4129 12.5212 45.7679 12.8812C45.0979 13.2532 44.4598 13.6342 43.8188 14.0522C42.8168 14.7072 41.8139 15.3612 40.8139 16.0152C40.5889 16.1632 40.3789 16.3361 40.1629 16.4951C39.5789 16.9291 38.9939 17.3641 38.4089 17.7971C37.6159 18.3861 36.8219 18.9712 36.0619 19.6012C35.1369 20.3692 34.2109 21.1352 33.2859 21.9032C33.0799 22.0742 32.8889 22.2671 32.6929 22.4471C32.1529 22.9461 31.6119 23.4452 31.0719 23.9442C30.4949 24.4782 29.9129 25.0052 29.3599 25.5652C28.4569 26.4792 27.5529 27.3922 26.6499 28.3062C26.0089 28.9542 25.4169 29.6572 24.8059 30.3332C24.2529 30.9462 23.6938 31.5502 23.1778 32.1942C22.4388 33.1182 21.6989 34.0431 20.9599 34.9681C20.1909 35.9281 19.5099 36.9602 18.8009 37.9622C18.3119 38.6562 17.8428 39.3482 17.3838 40.0622C16.8748 40.8552 16.3459 41.6372 15.8699 42.4492C15.3309 43.3652 14.7528 44.2672 14.2508 45.2042C13.7068 46.2202 13.1609 47.2371 12.6149 48.2531C12.1639 49.0931 11.7659 49.9651 11.3469 50.8221C10.9619 51.6101 10.5979 52.4002 10.2419 53.2032C9.76687 54.2732 9.27684 55.3381 8.84484 56.4261C8.45484 57.4071 8.03189 58.3791 7.67589 59.3731C7.31489 60.3821 6.95087 61.3922 6.59087 62.4032C5.89987 64.3362 5.32988 66.3131 4.73888 68.2791C4.16988 70.1711 3.70088 72.0932 3.22088 74.0102C2.99788 74.9002 2.81185 75.8002 2.60985 76.6952C2.51285 77.1232 2.44389 77.5582 2.36089 77.9892C2.26689 78.4792 2.15589 78.9681 2.07989 79.4621C1.74389 81.6191 1.4029 83.7801 1.2409 85.9591C1.0829 88.0991 0.961893 90.2342 0.899893 92.3792C0.872893 93.3472 0.868887 94.3171 0.855887 95.2851C0.839887 96.6481 0.869856 98.0371 1.02386 99.3911C1.30386 101.858 1.93188 104.289 2.54888 106.69C3.01788 108.517 3.48686 110.344 4.17986 112.102C4.32486 112.47 4.48685 112.828 4.65685 113.182C4.34585 113.343 4.04585 113.519 3.74785 113.726C3.31285 114.029 2.87385 114.35 2.53985 114.764C2.42585 114.91 2.31284 115.058 2.19884 115.205C2.00084 115.546 1.90185 115.913 1.90185 116.307C1.90185 116.883 2.13185 117.442 2.53985 117.849C2.94685 118.256 3.50484 118.487 4.08184 118.487C4.60684 118.487 5.28085 118.274 5.62285 117.849C5.73585 117.709 5.84287 117.599 5.96587 117.489C6.21287 117.316 6.46786 117.16 6.73186 117.013C6.88686 117.17 7.06184 117.307 7.25884 117.423C7.84884 117.769 8.5679 117.862 9.2279 117.68C9.8659 117.505 10.4209 117.077 10.7549 116.506C10.7889 116.449 10.8168 116.39 10.8448 116.332C10.8498 116.331 10.8539 116.332 10.8589 116.331C11.4519 116.254 12.0428 116.176 12.6338 116.094C13.3328 116.056 14.0339 116.03 14.7339 116.016C15.5849 116.345 16.4429 116.656 17.2969 116.97C19.1929 117.668 21.1069 118.314 23.0229 118.955C24.8229 119.556 26.6368 120.115 28.4438 120.692C29.4248 121.005 30.4029 121.322 31.3849 121.629C32.2489 121.899 33.1279 122.193 34.0149 122.378C34.7869 122.539 35.5519 122.674 36.3389 122.748C37.7899 122.883 39.1079 122.189 40.3139 121.473C41.9799 120.482 43.4249 119.146 44.8679 117.863C45.5599 117.247 46.2229 116.599 46.8739 115.939C48.5089 114.279 49.8009 112.354 50.7779 110.241C51.9469 107.718 52.6739 105.036 52.9449 102.271C53.1409 100.272 53.0989 98.2622 53.0019 96.2602C52.9049 94.2472 52.7489 92.2382 52.5969 90.2292C52.5419 89.5052 52.4829 88.7821 52.4259 88.0581C52.6969 87.0761 52.9889 86.0991 53.3009 85.1261C53.7859 83.6151 54.2729 82.1132 54.8059 80.6192C55.3609 79.0672 55.9309 77.5252 56.5229 75.9872C57.0379 74.6562 57.5859 73.3412 58.1369 72.0262C59.0379 70.0632 59.9229 68.0872 61.0059 66.2172C61.3799 65.5712 61.7549 64.9262 62.1289 64.2812C62.3369 63.9232 62.5809 63.5841 62.8129 63.2401C63.7809 61.8011 64.7429 60.3681 65.7919 58.9861C66.5749 57.9881 67.3899 57.0172 68.2649 56.1012C69.2349 55.0882 70.3149 54.1771 71.4179 53.3131C73.8719 51.4601 76.5059 49.8392 79.2729 48.4962C79.6989 48.2892 80.1309 48.0931 80.5639 47.9001C81.1079 47.9931 81.6499 48.0931 82.1889 48.2101C83.0469 48.3961 83.8759 48.6922 84.6879 49.0172C86.1499 49.6622 87.5959 50.3711 88.9549 51.2151C89.7879 51.7341 90.9329 51.3982 91.4169 50.5702C91.9319 49.6892 91.5888 48.6452 90.7718 48.1082C89.8558 47.5052 88.9049 46.9812 87.9329 46.4792C87.4609 46.2352 86.9849 46.0031 86.5029 45.7831C86.7359 45.7341 86.9689 45.6881 87.2049 45.6501C88.8119 45.4781 90.4149 45.5301 92.0169 45.7271C92.9689 45.8721 93.9019 46.0732 94.8199 46.3342C95.3419 46.6732 95.8558 47.0242 96.3578 47.4012C98.6808 49.2552 100.679 51.4361 102.512 53.7711C104.305 56.1351 105.867 58.6512 107.062 61.3722C107.712 62.9662 108.235 64.5981 108.638 66.2751C109.078 68.1031 109.406 69.9602 109.665 71.8222C109.845 73.2542 109.962 74.6902 110.092 76.1272C110.191 77.2262 110.19 78.3322 110.22 79.4352C110.234 79.9272 110.249 80.4191 110.261 80.9091C110.275 81.4051 110.23 81.9112 110.213 82.4062C110.19 83.1482 110.166 83.8902 110.142 84.6322C110.107 85.7052 109.993 86.7791 109.859 87.8451C109.741 88.6571 109.595 89.4632 109.435 90.2672C109.301 90.6732 109.152 91.0741 109.015 91.4771C108.85 91.9631 108.695 92.4521 108.502 92.9281C108.281 93.4741 108.059 94.0192 107.838 94.5652C107.48 95.2932 107.123 96.0211 106.765 96.7481C106.583 97.1191 106.34 97.4701 106.13 97.8261C105.891 98.2301 105.652 98.6351 105.413 99.0401C104.979 99.7751 104.468 100.476 103.997 101.188C103.54 101.88 103.036 102.543 102.554 103.218C102.08 103.823 101.606 104.429 101.132 105.034C100.501 105.839 99.7999 106.601 99.0899 107.336C98.4669 107.98 97.8159 108.611 97.1309 109.188C96.3999 109.802 95.6869 110.448 94.9329 111.035C94.5659 111.321 94.1988 111.608 93.8318 111.895C93.1988 112.239 92.5689 112.593 91.9179 112.893C91.0679 113.286 90.2189 113.681 89.3699 114.073C87.7929 114.726 86.2038 115.346 84.6258 115.995C83.5608 116.433 82.4809 116.845 81.4309 117.317C80.5349 117.719 79.6098 118.085 78.7378 118.535C76.9868 119.441 75.2089 120.321 73.5379 121.371C71.8039 122.46 70.0988 123.587 68.3888 124.713C67.5358 125.275 66.6829 125.837 65.8329 126.405C65.0079 126.955 64.2089 127.52 63.4109 128.108C61.0639 129.84 58.7549 131.691 56.7789 133.843C55.8209 134.885 54.9349 135.995 54.1329 137.161C54.0389 137.297 53.9559 137.441 53.8669 137.58C53.7419 137.728 53.6149 137.876 53.4939 138.026C52.9719 138.676 52.4759 139.345 52.0299 140.049C51.6859 140.592 51.4139 141.179 51.1609 141.769C50.8469 142.503 50.5619 143.238 50.3279 144.001C49.8619 145.519 49.6439 147.1 49.4369 148.671C49.4139 148.841 49.4009 149.012 49.3799 149.182C49.3659 149.244 49.3499 149.304 49.3359 149.366C49.2079 149.935 49.0799 150.503 48.9519 151.071C48.8539 151.512 48.8038 151.969 48.7328 152.416C48.5508 153.55 48.3949 154.678 48.2839 155.821C48.1009 157.71 47.9208 159.604 47.8448 161.501C47.6788 165.603 47.5688 169.704 47.4568 173.807C47.4068 175.649 47.3259 177.49 47.2549 179.331C47.2209 180.222 47.1899 181.114 47.1669 182.007C47.1559 182.434 47.1559 182.86 47.1559 183.286C47.1559 183.882 47.2269 184.492 47.3669 185.072C47.4549 185.437 47.7989 186.127 48.1009 186.371C48.4659 186.665 48.8099 187.006 49.2919 187.106C49.8609 187.223 50.3509 187.234 50.9209 187.17C51.2639 187.131 51.6068 187.079 51.9488 187.031C52.6568 187.518 53.5019 187.825 54.3539 187.955C55.6679 188.156 57.0099 188.194 58.3349 188.073C58.9619 188.015 59.5899 187.956 60.2189 187.898C61.2209 187.806 62.2189 187.669 63.2189 187.544C65.1279 187.305 67.0329 187.065 68.9479 186.876C69.8689 186.785 70.7828 186.697 71.7068 186.646C72.6908 186.591 73.6789 186.498 74.6639 186.508C74.9509 186.512 75.2409 186.511 75.5309 186.509C76.2399 186.508 76.9509 186.505 77.6529 186.564C78.6209 186.647 79.5959 186.699 80.5589 186.827C84.5719 187.362 88.6009 187.966 92.6559 188.06C93.6549 188.084 94.6459 188.09 95.6439 188.039C96.4199 188.001 97.2158 187.884 97.9098 187.513C98.2408 187.335 98.5339 187.114 98.7929 186.841C99.0859 186.53 99.4669 185.96 99.5509 185.527C99.6319 185.113 99.6969 184.704 99.6929 184.282C99.6889 183.854 99.5989 183.425 99.5249 183.005C99.4319 182.472 99.2889 181.947 99.1509 181.424C98.6509 179.535 98.1699 177.641 97.7519 175.73C96.9489 172.062 96.4219 168.347 95.8989 164.629C95.6899 162.864 95.4939 161.104 95.3269 159.335C95.2449 158.465 95.1999 157.592 95.1419 156.721C95.0179 154.88 94.9629 153.027 95.1609 151.19C95.3739 149.867 95.7129 148.581 96.1979 147.332C96.9909 145.582 98.0959 143.987 99.2579 142.462C100.056 141.452 100.912 140.498 101.821 139.597C101.953 139.488 102.085 139.379 102.218 139.272C103.556 138.275 104.991 137.444 106.425 136.594C107.379 136.027 108.347 135.488 109.314 134.942C109.769 134.685 110.23 134.439 110.694 134.196C110.829 134.15 110.962 134.098 111.099 134.055C111.739 133.85 112.38 133.646 113.021 133.441C113.927 133.151 114.859 132.933 115.778 132.683C117.579 132.193 119.395 131.708 121.163 131.102C123.133 130.428 125.088 129.723 127.032 128.977C128.047 128.588 129.052 128.152 130.035 127.69C130.737 127.36 131.424 127.017 132.099 126.629C133.384 125.891 134.567 124.941 135.65 123.935C136.706 122.954 137.623 121.834 138.496 120.689C139.365 119.55 140.172 118.365 140.897 117.128C142.017 115.216 142.876 113.144 143.6 111.053C143.928 110.109 144.244 109.169 144.53 108.211C144.807 107.287 145.082 106.361 145.35 105.434C146.431 101.699 147.546 97.9721 148.473 94.1941C149.461 90.1721 150.413 86.1461 151.225 82.0841C152.003 78.1901 152.615 74.2662 153.184 70.3382C153.491 68.2072 153.687 66.0602 153.859 63.9152C153.939 62.9272 153.939 61.9421 153.956 60.9511C153.97 59.9871 153.903 59.0211 153.853 58.0501ZM114.493 127.936C113.613 128.199 112.71 128.419 111.842 128.719C110.436 129.207 109.046 129.693 107.677 130.279C106.413 130.819 105.172 131.415 103.984 132.11C102.658 132.886 101.422 133.837 100.258 134.84C98.0859 136.708 96.2929 138.961 94.6369 141.287C93.8339 142.413 93.0989 143.603 92.4999 144.851C91.8649 146.176 91.4049 147.581 91.0839 149.012C90.7719 150.4 90.6338 151.819 90.5948 153.242C90.5778 153.327 90.5609 153.411 90.5439 153.495C90.1689 155.386 89.8569 157.281 89.7539 159.21C89.6399 161.325 89.9029 163.415 90.2029 165.504C90.3519 166.543 90.5269 167.574 90.7079 168.609C91.0419 170.531 91.4418 172.443 91.8238 174.357C92.1918 176.199 92.5019 178.043 92.7939 179.897C92.8819 180.694 92.9439 181.488 92.9159 182.286C92.0649 182.143 91.2179 181.975 90.3689 181.827C89.4349 181.663 88.4949 181.53 87.5559 181.392C85.4989 181.089 83.4369 180.805 81.3789 180.506C78.0569 180.024 74.6829 179.679 71.3249 179.937C69.1469 180.105 66.9728 180.3 64.7978 180.51C62.4408 180.737 60.0979 181.052 57.7549 181.391C57.0129 181.498 56.2729 181.64 55.5359 181.788C55.4239 180.229 55.3279 178.667 55.2209 177.107C55.0819 175.084 54.9598 173.06 54.8708 171.034C54.7068 167.261 54.5919 163.478 54.5549 159.701C54.5189 155.938 54.5168 152.178 54.9698 148.435C55.0708 147.764 55.1999 147.101 55.3529 146.443C55.4849 146.055 55.6169 145.667 55.7489 145.279C56.0229 144.472 56.3508 143.685 56.6778 142.897C56.9238 142.482 57.1889 142.08 57.4759 141.687C58.1639 140.856 58.9189 140.114 59.7529 139.435C61.4279 138.211 63.1719 137.073 64.9069 135.936C66.5449 134.864 68.1779 133.781 69.8529 132.767C71.5389 131.748 73.2279 130.723 74.9649 129.791C76.7529 128.833 78.5619 127.902 80.3349 126.911C81.2649 126.392 82.1939 125.872 83.1239 125.353C84.0379 124.844 84.9248 124.284 85.8238 123.749C87.5678 122.713 89.2489 121.565 90.9349 120.436C92.5709 119.341 94.1479 118.153 95.7229 116.972C97.1629 115.895 98.5389 114.74 99.9039 113.572C100.872 112.984 101.786 112.285 102.682 111.596C103.903 110.659 105.093 109.707 106.156 108.591C109.795 104.77 111.772 99.7361 113.038 94.6801C113.726 92.9051 114.265 91.0822 114.765 89.2472C115.295 87.3022 115.74 85.3282 115.993 83.3272C116.179 81.8632 116.37 80.4111 116.455 78.9361C116.621 76.0071 116.338 73.0762 115.869 70.1872C115.423 67.4402 114.682 64.7562 113.616 62.1862C113.238 61.2732 112.854 60.3511 112.389 59.4781C112.072 58.8841 111.755 58.2892 111.439 57.6952C110.55 56.0272 109.584 54.4141 108.512 52.8561C106.905 50.5261 105.077 48.3411 102.887 46.5381C101.819 45.6591 100.673 44.8682 99.4618 44.1992C98.7768 43.8222 98.0548 43.5161 97.3158 43.2581C95.2358 41.8821 92.9419 40.8602 90.5299 40.2132C89.1839 39.8522 87.7899 39.6572 86.4039 39.5352C84.8859 39.4012 83.3258 39.5371 81.8108 39.6631C80.1388 39.8041 78.4899 40.0752 76.8349 40.3502C75.0109 40.6532 73.2059 41.0172 71.4379 41.5752C70.0829 42.0032 68.7549 42.5492 67.4839 43.1862C66.1609 43.8492 64.9079 44.6692 63.7049 45.5302C62.6169 46.3092 61.5739 47.1542 60.5699 48.0392C60.1389 48.4202 59.7369 48.8341 59.3249 49.2361C58.9879 49.5641 58.6509 49.8932 58.3139 50.2212C57.9389 50.5862 57.6029 51.0062 57.2519 51.3942C56.9379 51.7412 56.6239 52.0882 56.3089 52.4332C55.9649 52.8132 55.6609 53.2402 55.3399 53.6402C54.6519 54.4972 53.9918 55.3622 53.3498 56.2542C53.0668 56.6462 52.7838 57.0402 52.5008 57.4332C51.6708 58.5922 50.9659 59.8542 50.2999 61.1122C49.6739 62.2962 49.1579 63.5472 48.7399 64.8202C48.2839 66.2102 48.0929 67.6691 47.9429 69.1181C47.7309 71.1481 47.8479 73.1902 47.9419 75.2232C47.9899 76.2472 48.0499 77.2691 48.1149 78.2921C48.1539 78.9011 48.2029 79.5091 48.2499 80.1181C48.1859 80.3111 48.1209 80.5031 48.0569 80.6961C47.7939 81.4791 47.5879 82.2821 47.3589 83.0761C47.0999 83.9761 46.8069 84.8732 46.5829 85.7812C46.2869 86.9742 45.9929 88.1651 45.6969 89.3581C45.2389 91.2121 44.8799 93.0901 44.4839 94.9591C44.2749 95.9541 44.1229 96.9641 43.9419 97.9641C43.7939 98.7871 43.6359 99.6071 43.5029 100.433C43.3249 101.533 43.1479 102.634 42.9679 103.735C42.8169 104.656 42.6589 105.586 42.4649 106.499C42.4079 106.764 42.3528 107.03 42.2978 107.295C42.2458 107.304 42.1929 107.312 42.1409 107.321C40.2389 107.654 38.3239 107.961 36.4369 108.379C34.4579 108.818 32.4779 109.248 30.5119 109.742C28.5739 110.23 26.6369 110.714 24.6949 111.182C24.2279 111.294 23.7629 111.409 23.2969 111.524C20.6179 111.509 17.9389 111.521 15.2579 111.571C14.2909 111.589 13.3249 111.633 12.3609 111.698C11.6169 111.314 10.8909 110.893 10.2139 110.412C10.0059 110.239 9.81584 110.055 9.63384 109.859C9.67084 109.771 9.70886 109.684 9.74486 109.596C9.83186 109.277 9.83184 108.958 9.74584 108.639C9.50084 106.767 9.33288 104.877 9.22588 102.992C9.11088 100.914 9.10384 98.8312 9.08684 96.7502C9.05284 92.8322 9.10287 88.9112 9.19787 84.9942C9.21787 84.1682 9.23484 83.3422 9.27184 82.5172C9.31484 81.5492 9.33285 80.5761 9.40685 79.6101C9.48185 78.6381 9.52086 77.6571 9.63586 76.6881C9.74086 75.8001 9.84687 74.9122 9.95287 74.0232C10.1149 73.0032 10.2668 71.9821 10.4568 70.9671C10.8558 69.5361 11.2658 68.1071 11.7328 66.6971C12.0438 65.7591 12.3388 64.8102 12.6728 63.8792C13.0228 62.9012 13.3439 61.9062 13.7259 60.9402C14.1129 59.9642 14.4988 58.9891 14.8838 58.0121C14.8988 57.9791 14.9128 57.9461 14.9278 57.9121C15.1018 57.5821 15.2759 57.2521 15.4449 56.9211C16.1939 55.4551 17.0309 54.0282 17.8769 52.6182C18.2839 51.9402 18.6828 51.2572 19.1078 50.5912C19.6028 49.8162 20.0759 49.0222 20.5979 48.2642C21.1449 47.4712 21.6628 46.6462 22.2428 45.8772C22.7508 45.2042 23.2579 44.5301 23.7669 43.8571C24.3759 43.1101 24.9859 42.3652 25.5969 41.6172C25.8469 41.3132 26.1258 41.0272 26.3888 40.7342C26.7938 40.2832 27.1989 39.8312 27.6029 39.3812C28.2769 38.6302 29.0058 37.9241 29.7068 37.1971C30.4208 36.4581 31.1679 35.7502 31.9009 35.0282C33.2259 33.7202 34.5978 32.4592 35.9828 31.2172C37.3858 29.9572 38.8139 28.7252 40.2959 27.5612C40.7679 27.1902 41.2398 26.8202 41.7118 26.4482C43.2708 25.2872 44.8429 24.1472 46.4209 23.0132C48.0499 21.8422 49.7719 20.8052 51.4809 19.7552C52.3549 19.2182 53.2789 18.7482 54.1749 18.2472C55.0709 17.7452 56.0049 17.3032 56.9169 16.8342C58.7209 15.9042 60.5579 15.0292 62.3869 14.1472C63.5649 13.5802 64.7639 13.0511 65.9529 12.5071C67.1489 12.0021 68.3409 11.4822 69.5629 11.0442C70.4419 10.7302 71.3219 10.4142 72.2019 10.0992C72.4569 10.0082 72.7238 9.94315 72.9828 9.86615C73.5908 9.68515 74.1989 9.50516 74.8059 9.32416C75.4219 9.14116 76.0368 8.97914 76.6598 8.82214C77.4328 8.62914 78.2019 8.41516 78.9799 8.24216C81.3899 7.70516 83.7939 7.13415 86.2409 6.77615C87.5509 6.61315 88.8619 6.50816 90.1839 6.49316C91.7489 6.47516 93.3059 6.59814 94.8609 6.75314C95.2809 6.79514 95.7009 6.84614 96.1199 6.89914C96.5109 6.95914 96.9019 7.01816 97.2929 7.07816C98.0519 7.19316 98.8139 7.29314 99.5649 7.45514C100.816 7.72714 102.068 7.99816 103.32 8.26816C104.096 8.43616 104.861 8.65215 105.629 8.84915C106.647 9.11115 107.663 9.37216 108.681 9.63416C109.672 9.88816 110.65 10.2281 111.631 10.5241C112.463 10.7761 113.313 10.9952 114.133 11.2822C115.267 11.6802 116.403 12.0782 117.538 12.4762C118.48 12.8072 119.406 13.1462 120.328 13.5232C122.914 14.6532 125.373 16.0352 127.637 17.7262C128.642 18.5282 129.596 19.3842 130.501 20.2992C131.353 21.1572 132.114 22.0952 132.858 23.0482C133.761 24.3152 134.712 25.5561 135.547 26.8701C136.13 27.7901 136.714 28.7102 137.299 29.6302C138.398 31.3622 139.333 33.2261 140.154 35.1071C141.817 39.2041 142.584 43.5762 143.393 47.9032C143.496 48.7862 143.603 49.6691 143.706 50.5511C143.806 51.3931 143.956 52.2442 143.997 53.0912C144.095 55.0702 144.205 57.0491 144.278 59.0291C144.43 63.1801 144.615 67.3301 144.705 71.4831C144.735 72.8211 144.773 74.1532 144.735 75.4912C144.695 76.9442 144.691 78.4042 144.597 79.8562C144.534 80.8182 144.472 81.7821 144.409 82.7451C144.371 83.3451 144.359 83.9531 144.291 84.5501C144.13 85.9471 143.971 87.3452 143.81 88.7422C143.565 90.2512 143.316 91.7592 143.07 93.2682C142.975 93.8512 142.817 94.4272 142.689 95.0022C142.483 95.9322 142.277 96.8612 142.071 97.7912C141.939 98.3822 141.735 98.9641 141.566 99.5451C141.326 100.374 141.086 101.204 140.844 102.033C140.659 102.674 140.382 103.301 140.152 103.927C139.848 104.756 139.556 105.586 139.221 106.402C138.527 108.006 137.76 109.567 136.889 111.085C135.939 112.741 134.852 114.314 133.695 115.83C132.847 116.909 131.961 117.951 130.982 118.915C130.071 119.813 129.084 120.644 128.078 121.434C126.914 122.314 125.706 123.135 124.434 123.849C123.752 124.232 123.079 124.644 122.377 124.988C121.673 125.332 120.977 125.713 120.257 126.02C119.913 126.167 119.569 126.314 119.225 126.46C117.661 126.996 116.074 127.461 114.493 127.936ZM41.2259 111.441C41.1339 111.632 41.0349 111.816 40.9249 111.996C40.2159 112.022 39.5019 111.946 38.7939 111.91C38.2589 111.883 37.7259 111.862 37.1919 111.839C36.3299 111.803 35.4699 111.776 34.6089 111.751C34.3599 111.743 34.1109 111.737 33.8619 111.729C34.8259 111.534 35.7899 111.34 36.7559 111.146C38.3529 110.824 39.9658 110.576 41.5818 110.348C41.4748 110.716 41.3589 111.081 41.2259 111.441ZM51.4349 71.3601C51.4549 70.3621 51.5139 69.3652 51.6329 68.3742C51.7359 67.7012 51.8659 67.0372 52.0429 66.3772C52.2319 65.6652 52.4879 64.9722 52.7649 64.2902C53.1969 63.3202 53.6969 62.3862 54.2219 61.4622C54.6709 60.6732 55.1549 59.8881 55.6819 59.1491C56.1919 58.4371 56.7018 57.7252 57.2118 57.0132C57.6938 56.4122 58.1739 55.8092 58.6559 55.2072C59.1559 54.5822 59.7179 54.0041 60.2549 53.4091C61.6029 51.9171 63.0809 50.5252 64.6529 49.2732C66.4169 47.9322 68.2919 46.7302 70.3179 45.8292C70.7559 45.6522 71.1989 45.4882 71.6459 45.3322C70.8219 45.8072 70.0299 46.3522 69.2679 46.9072C68.0699 47.7782 66.9349 48.7382 65.8569 49.7552C64.6609 50.8852 63.5838 52.1121 62.5088 53.3531C62.1418 53.7751 61.7739 54.2001 61.4069 54.6231C61.0809 55.0001 60.7868 55.4162 60.4828 55.8122C59.8858 56.5872 59.2449 57.3421 58.6899 58.1491C58.0359 59.1021 57.3819 60.0552 56.7279 61.0092C56.5459 61.2732 56.3939 61.5622 56.2289 61.8362C55.8609 62.4502 55.4938 63.0632 55.1258 63.6772C54.6508 64.4722 54.2549 65.3121 53.8339 66.1361C53.4539 66.8801 53.0929 67.6161 52.7559 68.3781C52.3169 69.3731 51.8749 70.3661 51.4349 71.3601ZM47.8838 103.68C47.8758 104.392 47.8489 105.104 47.7749 105.809C47.7409 106.013 47.7019 106.212 47.6489 106.409C47.5889 106.424 47.5279 106.435 47.4669 106.447C47.5719 105.774 47.6758 105.101 47.7718 104.427C47.8088 104.178 47.8478 103.929 47.8838 103.68ZM78.1969 43.8332C78.6919 43.7562 79.1869 43.6792 79.6819 43.6012C80.7709 43.4722 81.8699 43.3632 82.9709 43.3032C82.2789 43.5652 81.5959 43.8562 80.9179 44.1602C80.0229 44.0162 79.1099 43.8962 78.1969 43.8332ZM37.5669 119.583C37.3729 119.649 37.1829 119.7 36.9849 119.742C36.7419 119.753 36.5099 119.744 36.2689 119.719C34.4869 119.437 32.7489 118.815 31.0419 118.259C29.2759 117.685 27.5079 117.12 25.7339 116.574C25.3059 116.442 24.8768 116.309 24.4488 116.176C24.9018 116.195 25.3559 116.211 25.8089 116.234C29.9359 116.449 34.0589 116.696 38.1769 117.054C38.6149 117.092 39.0539 117.132 39.4919 117.171C39.9879 117.215 40.4739 117.256 40.9719 117.251C41.0099 117.251 41.0469 117.247 41.0849 117.246C40.8319 117.458 40.5768 117.668 40.3188 117.873C39.4488 118.52 38.5489 119.122 37.5669 119.583ZM46.4729 111.689C46.5989 111.199 46.7049 110.705 46.7999 110.21C46.8379 110.012 46.8759 109.815 46.9139 109.617C47.1809 109.578 47.4479 109.539 47.7139 109.491C47.3449 110.249 46.9349 110.984 46.4729 111.689Z" fill="#FDD483"/>
<path d="M77.7939 222.383C78.3669 222.375 78.936 222.418 79.504 222.485C80.538 222.659 81.5389 222.965 82.5109 223.356C83.6019 223.848 84.631 224.446 85.593 225.156C86.28 225.708 86.912 226.313 87.468 226.995C88.094 227.857 88.6449 228.768 89.0889 229.736C89.6119 231.067 89.932 232.471 90.166 233.879C90.171 233.922 90.176 233.965 90.181 234.009C90.202 234.158 90.2219 234.306 90.2419 234.455C90.3219 234.739 90.4649 234.987 90.6729 235.196C90.9869 235.509 91.4159 235.688 91.8599 235.688C92.3029 235.688 92.7339 235.509 93.0469 235.196C93.3279 234.915 93.5899 234.424 93.5389 234.009C93.4079 232.97 93.2289 231.96 92.9659 230.947C92.7459 230.101 92.475 229.281 92.119 228.48C91.637 227.395 90.9939 226.412 90.2759 225.47C89.9139 224.994 89.5319 224.546 89.1099 224.122C88.7089 223.718 88.2639 223.359 87.8149 223.01C86.9059 222.306 85.9449 221.703 84.9219 221.182C82.7889 220.095 80.3879 219.419 77.9849 219.419C77.9209 219.419 77.8579 219.419 77.7939 219.42C76.9879 219.431 76.314 220.084 76.314 220.9C76.314 221.701 76.9879 222.394 77.7939 222.383Z" fill="#FDD483"/>
<path d="M65.1579 19.2292C64.8139 19.1452 64.4729 19.0962 64.1269 19.0962C63.9759 19.0962 63.8229 19.1052 63.6689 19.1252C63.3109 19.1722 62.9549 19.2192 62.6099 19.3172C62.2389 19.4222 61.8719 19.5232 61.5079 19.6502C60.7349 19.9192 59.9669 20.2032 59.1989 20.4902C57.6129 21.0832 56.0609 21.7692 54.5059 22.4392C52.7529 23.1942 51.0709 24.1272 49.4509 25.1292C47.6069 26.2682 45.8769 27.5892 44.2139 28.9772C40.8079 31.8222 37.6859 35.0122 34.7899 38.3732C33.9579 39.3402 33.1439 40.3222 32.3329 41.3072C31.4599 42.3662 30.6269 43.4552 29.7899 44.5432C29.8569 44.4582 29.9219 44.3722 29.9889 44.2862C29.9339 44.3582 29.8779 44.4302 29.8239 44.5012C29.6059 44.7812 29.4519 45.0282 29.4519 45.3982C29.4519 45.7342 29.5869 46.0592 29.8239 46.2962C30.0599 46.5332 30.3859 46.6682 30.7209 46.6682C31.0209 46.6682 31.4259 46.5442 31.6189 46.2962C32.0199 45.7802 32.4159 45.2602 32.8149 44.7432C33.8589 43.3992 34.9599 42.0982 36.0619 40.8022C37.2389 39.4202 38.4479 38.0652 39.7089 36.7572C42.0249 34.3532 44.4799 32.0682 47.1129 30.0132C48.3759 29.0512 49.6809 28.1612 51.0459 27.3512C52.5169 26.4802 54.0459 25.7362 55.6089 25.0492C56.3299 24.7662 57.0519 24.4822 57.7719 24.1992C58.4699 23.9262 59.1819 23.6942 59.8889 23.4472C60.5359 23.2202 61.1909 23.0152 61.8439 22.8042C62.7899 22.5012 63.7409 22.1322 64.7189 21.9532C64.7429 21.9512 64.7669 21.9492 64.7909 21.9472C65.0399 21.9472 65.2729 21.8842 65.4889 21.7592C65.7989 21.5772 66.0289 21.2772 66.1239 20.9322C66.3209 20.2212 65.8919 19.4082 65.1579 19.2292Z" fill="#FDD483"/>
<path d="M124.161 114.335C124.994 113.425 125.765 112.464 126.515 111.486C126.556 111.446 126.597 111.405 126.638 111.364C127.933 110.066 129.066 108.622 130.128 107.129C131.194 105.631 132.101 104.033 132.897 102.376C133.794 100.512 134.528 98.5733 135.166 96.6083C135.339 96.0723 134.968 95.4823 134.444 95.3373C134.352 95.3123 134.26 95.2993 134.171 95.2993C133.717 95.2993 133.319 95.6113 133.173 96.0593C132.798 97.2113 132.386 98.3463 131.929 99.4673C131.409 99.3913 130.862 99.6303 130.584 100.105C130.024 101.066 129.536 102.065 129.014 103.046C128.545 103.929 128.036 104.783 127.507 105.632C126.491 107.266 125.327 108.801 124.168 110.335C123.934 110.627 123.698 110.918 123.459 111.206C123.045 111.553 122.63 111.901 122.215 112.247C121.975 112.426 121.735 112.606 121.495 112.784C121.239 112.976 120.989 113.181 120.722 113.357C120.052 113.798 119.384 114.237 118.7 114.656C118.083 115.034 117.46 115.401 116.832 115.756C116.485 115.952 116.138 116.145 115.791 116.339C115.504 116.498 115.222 116.663 114.939 116.83C114.66 116.996 114.395 117.217 114.228 117.502C114.074 117.765 114.028 118.091 114.035 118.389C114.049 118.933 114.417 119.532 114.987 119.641C115.205 119.682 115.422 119.728 115.644 119.746C115.887 119.766 116.112 119.736 116.356 119.699C116.782 119.634 117.188 119.514 117.593 119.366C118.479 119.043 119.283 118.566 120.055 118.031C121.578 116.982 122.916 115.696 124.161 114.335ZM115.645 117.16C115.663 117.163 115.682 117.165 115.7 117.168C115.682 117.166 115.664 117.163 115.645 117.16Z" fill="#FDD483"/>
<path d="M106.203 179.263C106.116 178.918 106.02 178.572 105.946 178.224C105.787 177.488 105.602 176.751 105.471 176.009C105.329 175.193 105.187 174.377 105.044 173.561C104.928 172.893 104.845 172.219 104.749 171.548C104.671 170.908 104.597 170.27 104.554 169.626C104.503 168.871 104.514 168.11 104.531 167.354C104.565 165.946 104.706 164.549 104.87 163.151C104.956 162.547 105.04 161.942 105.124 161.337C105.209 160.731 105.322 160.129 105.425 159.526C105.645 158.244 105.947 156.97 106.409 155.752C106.56 155.353 106.312 154.864 105.964 154.66C105.816 154.573 105.647 154.529 105.476 154.529C105.39 154.529 105.303 154.54 105.219 154.563C105.001 154.623 104.736 154.79 104.642 155.007C104.273 155.857 103.965 156.727 103.723 157.618C103.595 157.517 103.447 157.442 103.289 157.399C102.972 157.311 102.626 157.356 102.344 157.523C102.094 157.669 101.826 157.958 101.778 158.257C101.27 161.414 100.754 164.585 100.762 167.792C100.765 169.393 100.889 170.981 101.113 172.565C101.257 173.57 101.503 174.551 101.751 175.533C101.993 176.491 102.301 177.441 102.642 178.369C102.838 178.902 103.036 179.435 103.241 179.965C103.49 180.602 103.75 181.247 104.101 181.835C104.409 182.351 105.031 182.613 105.615 182.451C105.841 182.388 106.039 182.273 106.206 182.107C106.473 181.838 106.566 181.526 106.598 181.159C106.639 180.697 106.454 180.275 106.345 179.837C106.297 179.644 106.25 179.453 106.203 179.263Z" fill="#FDD483"/>
<path d="M77.4429 173.453C76.7049 173.342 75.9689 173.25 75.2239 173.201C74.6099 173.16 73.9959 173.144 73.3799 173.124C72.3109 173.091 71.243 173.059 70.174 173.019C67.262 172.907 64.3519 172.753 61.4439 172.594C61.4169 172.593 61.3899 172.592 61.3629 172.592C60.4439 172.592 59.689 173.457 59.689 174.347C59.689 174.81 59.8749 175.26 60.2039 175.587C60.5449 175.93 60.9689 176.075 61.4439 176.1C64.2999 176.259 67.158 176.414 70.017 176.534C72.35 176.632 74.6869 176.776 77.0189 176.601C77.3079 176.6 77.5779 176.527 77.8259 176.382C78.1839 176.173 78.453 175.825 78.562 175.424C78.676 175.012 78.6179 174.56 78.4009 174.19C78.2129 173.867 77.8319 173.511 77.4429 173.453Z" fill="#FDD483"/>
<path d="M57.6639 246.51C57.7479 246.941 57.9159 247.359 58.0819 247.763C58.2969 248.288 58.5409 248.791 58.8239 249.283C59.0539 249.682 59.3419 250.051 59.6209 250.415C59.9549 250.85 60.2949 251.277 60.6649 251.682C61.3149 252.391 62.1219 252.986 62.9739 253.429C65.1279 254.554 67.574 255.045 69.991 255.105C70.894 255.126 71.6489 254.333 71.6489 253.446C71.6489 253.008 71.473 252.583 71.163 252.274C70.842 251.951 70.4389 251.811 69.9919 251.788C69.7259 251.775 69.4599 251.775 69.1959 251.777C68.9689 251.777 68.7409 251.777 68.5139 251.768C68.0779 251.751 67.6489 251.72 67.2159 251.68C66.3469 251.537 65.5059 251.308 64.6819 250.993C64.1979 250.775 63.744 250.529 63.309 250.221C62.748 249.75 62.2709 249.213 61.8149 248.642C61.3859 248.061 61.0239 247.457 60.7199 246.801C60.5359 246.326 60.3979 245.849 60.3109 245.344C60.2459 244.801 60.189 244.258 60.137 243.714C60.1 243.327 60.008 243.002 59.723 242.718C59.46 242.455 59.0989 242.306 58.7269 242.306C58.3549 242.306 57.9929 242.455 57.7299 242.718C57.4879 242.961 57.2839 243.361 57.3179 243.714C57.4039 244.646 57.4849 245.588 57.6639 246.51Z" fill="#FDD483"/>
</svg>
