<svg width="157" height="224" viewBox="0 0 157 224" fill="none" xmlns="http://www.w3.org/2000/svg">
<path d="M101.843 37.3325L13.4668 169.554L45.0408 190.658L133.417 58.4363L101.843 37.3325Z" stroke="#5FCCF5" stroke-width="5.4314" stroke-miterlimit="10" stroke-linecap="round" stroke-linejoin="round"/>
<path d="M113.066 20.5322L101.881 37.272L133.457 58.3709L144.642 41.6311L113.066 20.5322Z" fill="#5FCCF5" stroke="#5FCCF5" stroke-width="5.4314" stroke-miterlimit="10"/>
<path d="M144.579 41.627L150.653 32.541C156.479 23.818 154.137 12.0289 145.419 6.20294C136.696 0.374941 124.907 2.72295 119.079 11.4369L113.003 20.5309L144.579 41.627Z" fill="#5FCCF5" stroke="#5FCCF5" stroke-width="5.4314" stroke-miterlimit="10"/>
<path d="M13.461 169.498L45.037 190.601L4 217.853L13.461 169.498Z" fill="#5FCCF5" stroke="#5FCCF5" stroke-width="5.4314" stroke-miterlimit="10"/>
<path d="M8.66797 193.982L4 217.853L24.258 204.394L8.66797 193.982Z" fill="white" stroke="#5FCCF5" stroke-width="5.4314" stroke-miterlimit="10"/>
<path d="M117.61 47.8179L29.25 180.052" stroke="#5FCCF5" stroke-width="5.4314" stroke-miterlimit="10" stroke-linecap="round" stroke-linejoin="round"/>
</svg>
