<svg width="191" height="211" viewBox="0 0 191 211" fill="none" xmlns="http://www.w3.org/2000/svg">
<path d="M136.144 156.386C133.149 157.554 130.32 159.371 127.827 161.728C127.451 162.068 127.168 162.523 127.02 163.025C126.873 163.528 126.868 164.051 127.007 164.517C128.092 167.767 131.791 167.12 134.414 166.259C136.981 165.424 139.442 164.05 141.66 162.214C142.732 161.304 143.736 160.289 144.659 159.183C145.695 157.97 146.89 156.5 146.979 154.817C147.143 152.608 145.527 151.501 143.706 151.657C142.352 151.905 141.029 152.512 139.851 153.427C136.711 155.459 133.596 157.513 130.506 159.591C129.983 159.87 129.553 160.356 129.307 160.947C129.06 161.538 129.017 162.186 129.186 162.753C129.365 163.318 129.745 163.751 130.242 163.958C130.739 164.166 131.314 164.131 131.841 163.861C134.11 162.332 136.344 160.888 138.608 159.419L141.874 157.217C142.342 156.917 142.824 156.66 143.269 156.363C143.53 156.187 142.96 156.432 143.269 156.363L143.513 156.329C143.621 156.301 143.73 156.28 143.84 156.267C143.583 156.284 143.539 156.29 143.68 156.3C143.822 156.309 143.769 156.337 143.619 156.274C143.224 155.998 142.919 155.858 142.874 155.221C142.863 155.073 142.884 154.921 142.935 154.776C143.023 154.565 143.058 154.481 142.935 154.776C142.604 155.244 142.265 155.734 141.925 156.149C141.766 156.33 141.612 156.526 141.44 156.714C141.44 156.714 141.109 157.084 141.299 156.878L141.149 157.014C140.764 157.422 140.362 157.812 139.945 158.182C139.527 158.552 139.13 158.882 138.753 159.17C138.559 159.312 138.374 159.457 138.171 159.595C137.968 159.733 138.008 159.713 137.919 159.775C138.308 159.516 137.751 159.878 137.725 159.892C136.868 160.426 135.982 160.884 135.076 161.262L134.714 161.408L134.426 161.523C134.643 161.453 134.338 161.561 134.325 161.568L133.857 161.719C133.335 161.873 132.81 162.012 132.288 162.117C132.005 162.172 131.727 162.192 131.449 162.261C131.763 162.281 131.17 162.331 131.449 162.261L131.007 162.25C130.893 162.247 130.78 162.234 130.671 162.209C130.901 162.305 130.83 162.276 130.671 162.209C130.308 162.058 130.671 162.209 130.733 162.235L130.866 162.414C130.741 162.214 130.741 162.214 130.866 162.414L130.04 165.214C130.595 164.683 131.171 164.184 131.766 163.718C132.061 163.482 132.366 163.25 132.666 163.029C132.666 163.029 133.235 162.635 132.931 162.843C133.076 162.742 133.235 162.635 133.399 162.543C134.676 161.718 136.007 161.03 137.373 160.488C137.634 160.354 137.877 160.166 138.085 159.934C138.293 159.702 138.464 159.432 138.586 159.138C138.709 158.843 138.782 158.532 138.8 158.221C138.818 157.91 138.781 157.605 138.692 157.325C138.511 156.763 138.131 156.332 137.635 156.124C137.138 155.917 136.565 155.951 136.037 156.218L136.144 156.386Z" fill="#002046"/>
<path d="M100.933 159.689C97.9378 160.857 95.1087 162.674 92.6163 165.031C92.2405 165.37 91.9575 165.825 91.8095 166.328C91.6616 166.831 91.6567 167.354 91.7956 167.82C92.8812 171.07 95.0959 169.499 97.7198 168.638C99.8425 167.638 100.321 167.638 103.542 165.512C104.768 164.827 107.403 162.898 108.789 161.827C109.826 160.613 111.679 159.803 111.768 158.12C111.932 155.911 110.316 154.803 108.495 154.96C107.141 155.207 105.819 155.815 104.64 156.73C101.5 158.762 98.3847 160.816 95.2949 162.894C94.7724 163.172 94.3421 163.659 94.0957 164.25C93.8493 164.84 93.8062 165.489 93.9755 166.056C94.1545 166.621 94.534 167.054 95.0312 167.261C95.5284 167.468 96.1031 167.433 96.6302 167.164C98.899 165.635 101.133 164.19 103.397 162.722L106.664 160.52C107.131 160.22 107.613 159.963 108.059 159.666C108.319 159.49 107.749 159.735 108.059 159.666L108.302 159.631C108.41 159.603 108.519 159.583 108.629 159.57C108.372 159.587 108.328 159.593 108.47 159.602C108.611 159.612 108.558 159.639 108.408 159.577C108.014 159.301 107.708 159.161 107.663 158.523C107.652 158.376 107.673 158.224 107.724 158.078C107.812 157.868 107.847 157.783 107.724 158.078C107.393 158.547 107.054 159.037 106.714 159.452C106.556 159.633 106.401 159.829 106.229 160.017C106.229 160.017 105.899 160.386 106.088 160.181L105.938 160.316C105.553 160.725 105.152 161.114 104.734 161.485C104.316 161.855 103.919 162.184 103.542 162.473C103.348 162.615 103.163 162.76 102.96 162.898C102.757 163.036 102.797 163.016 102.708 163.078C103.097 162.819 102.541 163.181 102.514 163.195C101.657 163.729 100.771 164.187 99.8648 164.565L99.5026 164.711L99.2155 164.826C99.432 164.756 99.1272 164.864 99.1139 164.87L98.6457 165.022C98.1244 165.175 97.5987 165.315 97.0773 165.419C96.7945 165.475 96.5161 165.495 96.2377 165.564C96.5516 165.584 95.9594 165.634 96.2377 165.564L95.7957 165.553C95.6817 165.55 95.5693 165.536 95.4596 165.512C95.6897 165.608 95.6189 165.578 95.4596 165.512C95.0968 165.36 95.4596 165.512 95.5216 165.538L95.6546 165.717C95.5304 165.517 95.5304 165.517 95.6546 165.717L94.8295 168.516C95.3839 167.986 95.9598 167.487 96.5547 167.021C96.8504 166.785 97.1549 166.553 97.455 166.332C97.455 166.332 98.0244 165.938 97.7198 166.145C97.8655 166.045 98.0244 165.938 98.1877 165.845C99.4649 165.021 100.796 164.332 102.162 163.79C102.424 163.657 102.666 163.469 102.874 163.237C103.082 163.005 103.253 162.734 103.375 162.44C103.498 162.146 103.571 161.835 103.589 161.523C103.607 161.212 103.57 160.908 103.481 160.628C103.3 160.066 102.92 159.634 102.424 159.427C101.927 159.22 101.354 159.254 100.826 159.52L100.933 159.689Z" fill="#002046"/>
<path d="M54.0848 168.9C50.8229 170.237 47.7323 172.293 44.9992 174.944C44.5873 175.326 44.2745 175.835 44.1074 176.396C43.9403 176.956 43.856 177.485 44.0002 178C45.133 181.594 47.0002 179.5 49.8288 178.501C52.1429 177.362 52.4427 177.349 55.9633 174.944C57.3011 174.168 60.5547 172.109 62.0718 170.901C63.2112 169.54 65.7301 168.882 65.8495 167.011C66.0562 164.556 64.3199 163.348 62.3443 163.546C60.8732 163.84 59.4321 164.532 58.1421 165.564C54.7116 167.863 51.3079 170.186 47.9311 172.535C47.3611 172.851 46.8882 173.398 46.6131 174.057C46.3381 174.716 46.2826 175.436 46.4586 176.064C46.6449 176.689 47.0503 177.165 47.5864 177.388C48.1225 177.612 48.7459 177.565 49.3207 177.258C51.8003 175.53 54.2406 173.896 56.7147 172.235L60.2845 169.746C60.7957 169.406 61.3207 169.114 61.8079 168.779C62.0925 168.58 61.4718 168.859 61.8079 168.779L62.0718 168.737C62.1899 168.704 62.3085 168.68 62.427 168.664C62.149 168.686 62.101 168.694 62.2542 168.702C62.4074 168.711 62.3496 168.742 62.1874 168.675C61.7641 168.374 61.4351 168.223 61.3943 167.515C61.3846 167.351 61.4092 167.182 61.4663 167.02C61.5645 166.785 61.6038 166.691 61.4663 167.02C61.1018 167.545 60.7274 168.093 60.3539 168.559C60.1794 168.762 60.0095 168.982 59.8206 169.193C59.8206 169.193 59.4571 169.608 59.6654 169.377L59.5011 169.529C59.0781 169.988 58.6378 170.426 58.1801 170.843C57.7224 171.26 57.2876 171.631 56.8755 171.956C56.6632 172.116 56.4603 172.28 56.2384 172.436C56.0165 172.592 56.0598 172.569 55.9633 172.639C56.3878 172.347 55.7801 172.756 55.7512 172.772C54.8149 173.376 53.8484 173.897 52.8614 174.329L52.4669 174.496L52.1542 174.628C52.3898 174.547 52.058 174.671 52.0436 174.678L51.534 174.853C50.967 175.031 50.3953 175.193 49.8288 175.315C49.5216 175.381 49.2196 175.407 48.917 175.488C49.2569 175.505 48.6144 175.569 48.917 175.488L48.438 175.481C48.3145 175.479 48.1928 175.466 48.0744 175.44C48.3224 175.543 48.2461 175.512 48.0744 175.44C47.6832 175.277 48.0744 175.44 48.1411 175.468L48.2829 175.665C48.151 175.444 48.151 175.444 48.2829 175.665L47.351 178.785C47.9589 178.188 48.5898 177.626 49.2409 177.101C49.5645 176.835 49.8976 176.574 50.2259 176.324C50.2259 176.324 50.8483 175.879 50.5154 176.113C50.6746 176 50.8483 175.879 51.0266 175.774C52.4219 174.841 53.874 174.058 55.3613 173.438C55.6469 173.286 55.9117 173.074 56.1406 172.814C56.3695 172.554 56.5579 172.251 56.6949 171.922C56.8318 171.594 56.9146 171.247 56.9385 170.901C56.9623 170.556 56.9268 170.218 56.8339 169.908C56.6451 169.286 56.2393 168.813 55.704 168.589C55.1687 168.366 54.5466 168.411 53.9717 168.714L54.0848 168.9Z" fill="#002046"/>
<path d="M92.4468 198.904C95.6652 197.411 98.8744 195.143 101.881 192.238C102.33 191.819 102.716 191.264 102.981 190.656C103.245 190.048 103.374 189.419 103.348 188.864C103.052 184.994 99.2664 185.884 96.4854 186.997C93.7666 188.077 91.0246 189.8 88.4112 192.072C87.1425 193.198 85.9155 194.447 84.747 195.802C83.4416 197.291 81.9199 199.092 81.4334 201.116C80.7494 203.773 82.0739 205.054 83.8992 204.812C85.288 204.473 86.7304 203.704 88.1051 202.569C91.6705 200.035 95.2167 197.473 98.7436 194.885C99.3228 194.535 99.8608 193.937 100.243 193.221C100.625 192.504 100.821 191.724 100.789 191.048C100.747 190.376 100.477 189.867 100.038 189.633C99.5987 189.399 99.0259 189.458 98.4444 189.798C95.8538 191.703 93.3177 193.505 90.7456 195.337L87.0158 198.079C86.4852 198.453 85.9515 198.777 85.4434 199.147C85.1459 199.366 85.7635 199.054 85.4434 199.147L85.1964 199.196C85.0831 199.233 84.971 199.261 84.8607 199.28C85.1164 199.252 85.1613 199.243 85.0247 199.235C84.888 199.228 84.9465 199.194 85.0794 199.265C85.401 199.584 85.6677 199.742 85.5612 200.507C85.5369 200.684 85.4803 200.867 85.396 201.043C85.2596 201.299 85.2051 201.401 85.396 201.043C85.8316 200.47 86.2809 199.872 86.7128 199.363C86.9117 199.141 87.1096 198.901 87.3231 198.67C87.3231 198.67 87.7355 198.216 87.5005 198.469L87.6799 198.302C88.1551 197.8 88.6416 197.32 89.1396 196.862C89.6376 196.405 90.1057 195.998 90.5439 195.64C90.7682 195.464 90.9847 195.283 91.2169 195.112C91.449 194.94 91.4051 194.965 91.5065 194.888C91.0637 195.211 91.6958 194.759 91.725 194.742C92.6935 194.075 93.6723 193.498 94.6517 193.017L95.042 192.83L95.3512 192.683C95.1219 192.774 95.4469 192.636 95.4615 192.627L95.9572 192.431C96.5056 192.231 97.055 192.047 97.5918 191.906C97.8826 191.831 98.1608 191.799 98.4507 191.707C98.147 191.693 98.7405 191.615 98.4507 191.707L98.8822 191.707C98.9935 191.707 99.1006 191.72 99.2024 191.746C98.9992 191.638 99.0618 191.671 99.2024 191.746C99.5229 191.917 99.2024 191.746 99.1477 191.717L99.0596 191.506C99.1341 191.743 99.1341 191.743 99.0596 191.506L100.533 188.119C99.8633 188.773 99.1793 189.39 98.4846 189.968C98.1384 190.259 97.7844 190.547 97.4372 190.822C97.4372 190.822 96.7846 191.312 97.1329 191.054C96.9661 191.179 96.7846 191.312 96.6022 191.428C95.1524 192.457 93.6819 193.324 92.2123 194.016C91.9235 194.184 91.6411 194.418 91.3816 194.702C91.1221 194.987 90.8905 195.317 90.7003 195.674C90.5101 196.031 90.365 196.407 90.2734 196.781C90.1819 197.155 90.1457 197.52 90.1669 197.853C90.2115 198.523 90.4823 199.03 90.9208 199.263C91.3593 199.497 91.9306 199.44 92.5115 199.103L92.4468 198.904Z" fill="#002046"/>
<path d="M140.326 127.101C143.311 125.606 146.413 123.37 149.446 120.529C149.897 120.119 150.316 119.581 150.64 118.994C150.964 118.407 151.175 117.804 151.243 117.273C151.617 113.581 148.246 114.512 145.695 115.635C143.203 116.725 140.587 118.43 137.991 120.657C136.728 121.76 135.48 122.98 134.264 124.3C132.911 125.751 131.322 127.504 130.58 129.449C129.567 132.003 130.489 133.199 132.084 132.929C133.322 132.575 134.676 131.81 136.032 130.696C139.481 128.198 142.918 125.675 146.344 123.126C146.894 122.779 147.449 122.197 147.891 121.503C148.333 120.81 148.626 120.061 148.708 119.415C148.781 118.773 148.633 118.293 148.297 118.079C147.96 117.864 147.463 117.933 146.912 118.271C144.395 120.146 141.942 121.922 139.453 123.728L135.83 126.428C135.317 126.797 134.81 127.117 134.317 127.481C134.028 127.697 134.605 127.387 134.317 127.481L134.098 127.534C133.996 127.571 133.896 127.6 133.799 127.621C134.021 127.589 134.061 127.579 133.945 127.575C133.83 127.571 133.886 127.537 133.987 127.602C134.21 127.9 134.412 128.046 134.197 128.779C134.148 128.948 134.07 129.125 133.969 129.295C133.812 129.542 133.749 129.641 133.969 129.295C134.433 128.738 134.913 128.157 135.364 127.662C135.569 127.445 135.777 127.212 135.996 126.986C135.996 126.986 136.421 126.544 136.18 126.79L136.36 126.627C136.846 126.136 137.339 125.667 137.837 125.22C138.336 124.772 138.801 124.373 139.232 124.022C139.452 123.848 139.665 123.672 139.891 123.502C140.117 123.333 140.075 123.359 140.174 123.283C139.745 123.6 140.356 123.155 140.384 123.138C141.318 122.48 142.245 121.908 143.158 121.427L143.521 121.241L143.808 121.094C143.598 121.186 143.898 121.046 143.911 121.037L144.366 120.84C144.866 120.637 145.364 120.45 145.844 120.303C146.104 120.226 146.346 120.189 146.608 120.095C146.352 120.088 146.87 120.001 146.608 120.095L146.976 120.086C147.071 120.083 147.16 120.094 147.243 120.116C147.087 120.017 147.135 120.048 147.243 120.116C147.488 120.273 147.243 120.116 147.201 120.09L147.16 119.89C147.185 120.114 147.185 120.114 147.16 119.89L148.964 116.622C148.287 117.261 147.604 117.865 146.919 118.432C146.576 118.718 146.228 119 145.888 119.27C145.888 119.27 145.252 119.752 145.591 119.499C145.428 119.621 145.252 119.752 145.078 119.867C143.675 120.882 142.282 121.741 140.917 122.434C140.643 122.601 140.365 122.83 140.098 123.108C139.831 123.385 139.58 123.706 139.36 124.051C139.14 124.396 138.955 124.759 138.817 125.118C138.678 125.478 138.588 125.827 138.552 126.145C138.482 126.784 138.631 127.263 138.967 127.477C139.303 127.691 139.799 127.624 140.349 127.29L140.326 127.101Z" fill="#002046"/>
<path d="M50.3785 122.575C53.089 121.507 55.8517 119.802 58.5001 117.563C58.8949 117.241 59.2488 116.804 59.5088 116.317C59.7689 115.831 59.9213 115.32 59.9431 114.863C60.0026 111.667 56.881 112.211 54.5526 112.988C52.2768 113.741 49.9328 115.021 47.6502 116.759C46.5404 117.622 45.4546 118.588 44.408 119.644C43.2406 120.803 41.8747 122.207 41.3264 123.847C40.5702 125.997 41.5396 127.116 43.0303 127.007C44.1764 126.797 45.3988 126.237 46.5949 125.372C49.6654 123.466 52.7225 121.536 55.7661 119.584C56.2602 119.324 56.74 118.86 57.1033 118.29C57.4666 117.72 57.6847 117.089 57.7111 116.531C57.7291 115.976 57.5505 115.545 57.2144 115.331C56.8783 115.117 56.4118 115.137 55.9166 115.388C53.6807 116.825 51.4968 118.18 49.2814 119.558L46.0622 121.628C45.6055 121.909 45.1503 122.148 44.712 122.427C44.4552 122.592 44.9772 122.367 44.712 122.427L44.509 122.455C44.4148 122.48 44.3223 122.497 44.2318 122.507C44.4402 122.497 44.4771 122.492 44.3675 122.479C44.2578 122.467 44.3076 122.441 44.4093 122.506C44.6441 122.784 44.847 122.928 44.7022 123.551C44.6691 123.695 44.6092 123.843 44.5277 123.983C44.398 124.187 44.3461 124.268 44.5277 123.983C44.9231 123.534 45.3315 123.065 45.719 122.668C45.8965 122.495 46.0745 122.308 46.2645 122.129C46.2645 122.129 46.6321 121.776 46.4231 121.972L46.5807 121.844C47.0026 121.454 47.4319 121.084 47.8687 120.733C48.3055 120.382 48.7144 120.07 49.0954 119.797C49.2898 119.664 49.4783 119.526 49.6788 119.397C49.8792 119.267 49.8418 119.286 49.9296 119.227C49.5476 119.47 50.0921 119.131 50.1171 119.118C50.9494 118.618 51.7832 118.192 52.6101 117.845L52.9392 117.711L53.2 117.606C53.008 117.669 53.2807 117.571 53.2932 117.565L53.708 117.428C54.1657 117.291 54.6229 117.167 55.0667 117.078C55.307 117.031 55.5338 117.018 55.7747 116.957C55.5309 116.93 56.0155 116.896 55.7747 116.957L56.1226 116.978C56.2124 116.984 56.2978 117 56.3779 117.026C56.2224 116.927 56.2702 116.958 56.3779 117.026C56.6232 117.183 56.3779 117.026 56.336 117L56.2812 116.822C56.3231 117.02 56.3231 117.02 56.2812 116.822L57.7306 114.111C57.1398 114.615 56.5407 115.089 55.936 115.529C55.6343 115.751 55.3267 115.97 55.0255 116.179C55.0255 116.179 54.4615 116.549 54.7622 116.355C54.6181 116.449 54.4615 116.549 54.3055 116.636C53.057 117.41 51.8044 118.049 50.5659 118.545C50.32 118.669 50.0744 118.847 49.8432 119.068C49.6119 119.289 49.3998 119.549 49.2189 119.833C49.038 120.117 48.892 120.419 48.7893 120.722C48.6867 121.025 48.6294 121.323 48.6208 121.598C48.6052 122.151 48.7846 122.581 49.1202 122.794C49.4559 123.008 49.921 122.989 50.4154 122.742L50.3785 122.575Z" fill="#002046"/>
<path d="M62.3529 98.6332C65.3193 97.4475 68.3461 95.5624 71.2508 93.0917C71.6837 92.7364 72.0725 92.2551 72.3591 91.7197C72.6458 91.1843 72.8148 90.6236 72.841 90.1214C72.9227 86.615 69.5099 87.2275 66.9624 88.0921C64.4725 88.9301 61.9053 90.3476 59.4029 92.2662C58.186 93.2185 56.995 94.284 55.8461 95.448C54.5649 96.7258 53.0656 98.274 52.4581 100.076C51.6208 102.439 52.674 103.661 54.3029 103.534C55.556 103.298 56.8942 102.677 58.2052 101.722C61.5693 99.614 64.9188 97.4811 68.2537 95.3232C68.7948 95.0358 69.3214 94.5239 69.7212 93.8964C70.121 93.2688 70.3625 92.5753 70.3943 91.9634C70.4167 91.3547 70.2239 90.8822 69.8579 90.649C69.4918 90.4158 68.9822 90.4407 68.4399 90.7182C65.9901 92.3064 63.5973 93.805 61.1701 95.3289L57.6429 97.6162C57.1425 97.9272 56.644 98.1921 56.1637 98.5002C55.8824 98.6831 56.4538 98.4331 56.1637 98.5002L55.9419 98.5321C55.8389 98.5597 55.7377 98.5793 55.6388 98.5909C55.8665 98.5785 55.9069 98.5727 55.7871 98.5594C55.6674 98.5461 55.722 98.5179 55.8327 98.5885C56.0877 98.8926 56.3086 99.0491 56.1473 99.7336C56.1103 99.8916 56.0441 100.055 55.9543 100.209C55.8116 100.433 55.7545 100.523 55.9543 100.209C56.3886 99.7142 56.8372 99.197 57.2625 98.7594C57.4574 98.5686 57.6528 98.3625 57.8613 98.1647C57.8613 98.1647 58.2646 97.7761 58.0353 97.9922L58.2081 97.8503C58.671 97.4209 59.1419 97.0125 59.6209 96.6248C60.0999 96.2372 60.5481 95.893 60.9657 95.5922C61.1788 95.4446 61.3854 95.2928 61.6051 95.1494C61.8247 95.0059 61.7838 95.027 61.8799 94.9623C61.4614 95.2311 62.058 94.8554 62.0853 94.8413C62.9971 94.2882 63.9102 93.8167 64.8153 93.4316L65.1754 93.2832L65.4608 93.1658C65.2508 93.2367 65.5492 93.1277 65.5629 93.1207L66.0167 92.969C66.5174 92.8156 67.0175 92.6776 67.5027 92.5774C67.7655 92.5243 68.0133 92.5091 68.2767 92.4407C68.0105 92.4128 68.5401 92.3723 68.2767 92.4407L68.6567 92.4624C68.7547 92.468 68.8479 92.4852 68.9353 92.5139C68.7659 92.406 68.818 92.4392 68.9353 92.5139C69.2024 92.6841 68.9353 92.5139 68.8897 92.4849L68.8308 92.2899C68.8754 92.5073 68.8754 92.5073 68.8308 92.2899L70.4282 89.3083C69.7802 89.8645 69.1233 90.3868 68.4604 90.873C68.1297 91.1189 67.7925 91.3607 67.4624 91.5912C67.4624 91.5912 66.8444 92.0005 67.1739 91.7853C67.016 91.8894 66.8444 92.0005 66.6735 92.0963C65.3057 92.9519 63.934 93.6602 62.5786 94.2108C62.3093 94.3483 62.0401 94.5445 61.7864 94.7883C61.5326 95.032 61.2995 95.3184 61.1004 95.6308C60.9013 95.9433 60.7403 96.2756 60.6266 96.6086C60.5129 96.9415 60.4488 97.2685 60.438 97.5706C60.418 98.1771 60.6117 98.6475 60.9773 98.8804C61.3428 99.1133 61.851 99.0901 62.3923 98.8157L62.3529 98.6332Z" fill="#002046"/>
<path d="M99.3405 94.5056C102.615 93.0062 105.991 90.712 109.266 87.7612C109.754 87.3361 110.2 86.7707 110.539 86.1494C110.878 85.5282 111.09 84.8845 111.145 84.3146C111.42 80.3412 107.693 81.2155 104.889 82.3293C102.149 83.4098 99.2952 85.1504 96.4845 87.4549C95.1167 88.5974 93.7709 89.8666 92.4656 91.245C91.0109 92.7594 89.3057 94.5914 88.5527 96.6629C87.5209 99.3828 88.5962 100.71 90.3664 100.48C91.7353 100.146 93.217 99.3721 94.6868 98.2217C98.4402 95.6574 102.179 93.0655 105.904 90.446C106.505 90.0921 107.102 89.4847 107.568 88.7532C108.034 88.0216 108.332 87.2237 108.399 86.5295C108.456 85.8392 108.272 85.3147 107.888 85.0701C107.504 84.8255 106.951 84.8807 106.349 85.2236C103.613 87.1512 100.944 88.9744 98.2353 90.828L94.2957 93.6041C93.7375 93.9827 93.1838 94.309 92.6476 94.6832C92.3333 94.9051 92.9651 94.5918 92.6476 94.6832L92.4058 94.731C92.2928 94.7678 92.1822 94.7954 92.0746 94.8137C92.3217 94.7876 92.3657 94.7789 92.2368 94.7702C92.1078 94.7615 92.1684 94.7267 92.2846 94.8007C92.5445 95.1314 92.7753 95.2969 92.5644 96.0802C92.5159 96.2611 92.4357 96.449 92.3303 96.6285C92.1639 96.8896 92.0974 96.9941 92.3303 96.6285C92.8267 96.0454 93.3397 95.4362 93.8233 94.9184C94.0443 94.6921 94.2668 94.4484 94.503 94.2134C94.503 94.2134 94.9602 93.7522 94.7005 94.0089L94.8951 93.8392C95.4189 93.3286 95.9504 92.8413 96.4894 92.3771C97.0285 91.913 97.532 91.4996 98 91.137C98.2385 90.9586 98.4702 90.7758 98.7156 90.6018C98.961 90.4277 98.9155 90.4538 99.0231 90.3755C98.5558 90.7018 99.2215 90.2449 99.2518 90.2275C100.268 89.5531 101.282 88.971 102.282 88.4871L102.68 88.3L102.995 88.1521C102.764 88.2435 103.092 88.1042 103.108 88.0955L103.607 87.8998C104.157 87.6996 104.706 87.5169 105.236 87.3777C105.524 87.3038 105.793 87.2733 106.081 87.182C105.795 87.1645 106.37 87.0906 106.081 87.182L106.492 87.1864C106.597 87.1875 106.697 87.2021 106.79 87.23C106.613 87.1168 106.667 87.1516 106.79 87.23C107.071 87.4084 106.79 87.23 106.743 87.1995L106.689 86.9819C106.726 87.2256 106.726 87.2256 106.689 86.9819L108.576 83.5222C107.845 84.1862 107.107 84.8122 106.363 85.3977C105.992 85.6936 105.614 85.9851 105.245 86.2636C105.245 86.2636 104.554 86.7596 104.922 86.4986C104.746 86.6248 104.554 86.7596 104.364 86.8771C102.838 87.9181 101.316 88.7926 99.8192 89.4878C99.5205 89.6576 99.2186 89.894 98.931 90.1834C98.6434 90.4727 98.3758 90.8093 98.1438 91.1735C97.9117 91.5378 97.7198 91.9225 97.579 92.3054C97.4383 92.6883 97.3515 93.0618 97.3238 93.4043C97.2701 94.092 97.4548 94.6142 97.8382 94.8584C98.2216 95.1027 98.7729 95.0494 99.3735 94.7102L99.3405 94.5056Z" fill="#002046"/>
<path d="M142.117 43.4915C144.513 42.3774 146.987 40.6796 149.389 38.5006C149.747 38.1866 150.075 37.7699 150.325 37.3126C150.575 36.8553 150.733 36.3822 150.775 35.9638C150.992 33.0473 148.269 33.7047 146.219 34.5339C144.215 35.3384 142.124 36.6277 140.064 38.3305C139.061 39.1746 138.073 40.1116 137.115 41.1286C136.047 42.2459 134.794 43.5973 134.236 45.1204C133.472 47.1204 134.251 48.0898 135.543 47.9132C136.544 47.6628 137.628 47.0882 138.706 46.2379C141.456 44.3404 144.195 42.4227 146.924 40.4849C147.364 40.2226 147.803 39.7744 148.146 39.2357C148.489 38.6969 148.71 38.1103 148.762 37.6006C148.806 37.0939 148.674 36.7098 148.395 36.532C148.116 36.3542 147.712 36.397 147.272 36.6512C145.267 38.0772 143.311 39.4263 141.327 40.7979L138.44 42.8516C138.031 43.1317 137.626 43.3735 137.233 43.6504C137.002 43.8146 137.465 43.582 137.233 43.6504L137.056 43.6865C136.973 43.714 136.893 43.7347 136.814 43.7486C136.994 43.7284 137.027 43.7218 136.933 43.716C136.839 43.7101 136.883 43.6843 136.967 43.7381C137.156 43.9797 137.323 44.1001 137.166 44.6757C137.13 44.8087 137.071 44.9469 136.993 45.0791C136.87 45.2713 136.821 45.3483 136.993 45.0791C137.358 44.6491 137.735 44.1999 138.09 43.8179C138.252 43.6509 138.415 43.4712 138.589 43.2978C138.589 43.2978 138.924 42.9574 138.734 43.1469L138.876 43.0215C139.261 42.6447 139.651 42.2848 140.046 41.942C140.441 41.5991 140.811 41.2937 141.154 41.0256C141.328 40.8937 141.498 40.7586 141.678 40.6299C141.858 40.5011 141.825 40.5205 141.903 40.4625C141.561 40.704 142.049 40.3659 142.071 40.353C142.816 39.8538 143.558 39.4224 144.29 39.0631L144.581 38.9241L144.811 38.8142C144.642 38.8822 144.883 38.7787 144.894 38.7722L145.259 38.6265C145.661 38.4773 146.062 38.3409 146.45 38.2365C146.66 38.181 146.857 38.1575 147.068 38.0893C146.859 38.0777 147.279 38.021 147.068 38.0893L147.367 38.0907C147.444 38.0911 147.517 38.1014 147.585 38.1214C147.456 38.0391 147.496 38.0644 147.585 38.1214C147.789 38.2512 147.585 38.1214 147.55 38.0993L147.512 37.9398C147.538 38.1185 147.538 38.1185 147.512 37.9398L148.904 35.3934C148.368 35.8836 147.826 36.3462 147.281 36.7789C147.009 36.9976 146.732 37.2131 146.461 37.419C146.461 37.419 145.955 37.7859 146.225 37.5928C146.096 37.6861 145.955 37.7859 145.816 37.8729C144.698 38.6432 143.583 39.2914 142.488 39.8078C142.27 39.9337 142.048 40.1084 141.837 40.322C141.626 40.5355 141.429 40.7836 141.258 41.0518C141.088 41.32 140.946 41.6031 140.841 41.8847C140.737 42.1662 140.672 42.4406 140.651 42.6921C140.608 43.1969 140.741 43.5792 141.02 43.7568C141.298 43.9343 141.701 43.8929 142.141 43.6414L142.117 43.4915Z" fill="#002046"/>
<path d="M176.334 14.1721C179.004 13.2499 181.701 11.7157 184.262 9.66202C184.644 9.36733 184.981 8.96013 185.222 8.50131C185.463 8.04249 185.595 7.55668 185.599 7.11653C185.533 4.03938 182.431 4.44012 180.132 5.09715C177.885 5.73307 175.591 6.87504 173.375 8.45986C172.299 9.24749 171.251 10.1356 170.245 11.1119C169.123 12.1829 167.812 13.4827 167.328 15.0409C166.656 17.0837 167.67 18.1998 169.157 18.1535C170.296 17.9968 171.496 17.5047 172.659 16.7186C175.656 15.0022 178.638 13.2633 181.606 11.5018C182.09 11.2711 182.552 10.8426 182.893 10.3074C183.234 9.77214 183.428 9.17257 183.432 8.63633C183.428 8.10244 183.232 7.67962 182.888 7.45999C182.543 7.24036 182.077 7.2417 181.592 7.46373C179.411 8.76035 177.28 9.98056 175.118 11.2216L171.979 13.0891C171.533 13.3421 171.087 13.5548 170.659 13.8061C170.409 13.9555 170.922 13.7589 170.659 13.8061L170.457 13.8252C170.364 13.8453 170.272 13.8585 170.182 13.8647C170.39 13.863 170.427 13.8595 170.317 13.843C170.206 13.8265 170.255 13.8039 170.359 13.8704C170.605 14.1479 170.814 14.2942 170.694 14.889C170.666 15.0264 170.612 15.1669 170.536 15.2989C170.414 15.4899 170.366 15.5663 170.536 15.2989C170.914 14.8817 171.304 14.4454 171.676 14.0781C171.847 13.9183 172.018 13.7451 172.201 13.5797C172.201 13.5797 172.554 13.2546 172.353 13.4352L172.506 13.3175C172.912 12.9589 173.327 12.619 173.751 12.2978C174.174 11.9765 174.571 11.6922 174.941 11.4448C175.13 11.3236 175.313 11.1986 175.509 11.0814C175.704 10.9642 175.668 10.9811 175.753 10.9282C175.381 11.1474 175.912 10.8414 175.936 10.8301C176.749 10.3809 177.567 10.0034 178.38 9.70153L178.704 9.58565L178.961 9.49408C178.772 9.54789 179.041 9.46412 179.053 9.45848L179.462 9.34348C179.915 9.22892 180.367 9.12782 180.808 9.05928C181.046 9.02328 181.273 9.01984 181.511 8.97038C181.266 8.93517 181.75 8.92091 181.511 8.97038L181.86 9.00473C181.95 9.01359 182.036 9.03248 182.118 9.06121C181.958 8.95959 182.007 8.99086 182.118 9.06121C182.369 9.22147 182.118 9.06121 182.075 9.03385L182.013 8.86017C182.063 9.05296 182.063 9.05296 182.013 8.86017L183.356 6.30512C182.785 6.76767 182.204 7.2001 181.617 7.6005C181.324 7.80323 181.024 8.00205 180.731 8.19131C180.731 8.19131 180.182 8.526 180.475 8.35019C180.334 8.43527 180.182 8.526 180.029 8.60326C178.81 9.29984 177.582 9.86689 176.363 10.2961C176.122 10.406 175.883 10.5676 175.66 10.7715C175.438 10.9754 175.236 11.2176 175.066 11.4841C174.896 11.7506 174.762 12.036 174.671 12.324C174.58 12.6119 174.535 12.8966 174.537 13.1615C174.543 13.6936 174.74 14.1146 175.084 14.334C175.428 14.5533 175.893 14.5533 176.378 14.3341L176.334 14.1721Z" fill="#002046"/>
<path d="M114.927 24.8838C117.273 23.9172 119.693 22.3937 122.043 20.405C122.393 20.119 122.713 19.7329 122.957 19.3047C123.201 18.8765 123.355 18.429 123.396 18.0292C123.603 15.2386 120.936 15.7526 118.928 16.4605C116.966 17.1467 114.92 18.2946 112.904 19.8408C111.923 20.6081 110.958 21.4651 110.02 22.4003C108.976 23.427 107.752 24.6706 107.208 26.1088C106.463 27.9961 107.228 28.9602 108.494 28.8462C109.474 28.6488 110.536 28.1438 111.59 27.3738C114.281 25.6703 116.961 23.9471 119.631 22.204C120.062 21.9711 120.491 21.5597 120.826 21.0572C121.161 20.5548 121.376 20.0011 121.426 19.514C121.468 19.0294 121.339 18.655 121.065 18.4723C120.791 18.2896 120.395 18.3134 119.964 18.5385C118.002 19.8213 116.089 21.0324 114.147 22.2639L111.323 24.1114C110.923 24.3628 110.526 24.5775 110.141 24.8264C109.916 24.9741 110.369 24.7707 110.141 24.8264L109.968 24.8535C109.887 24.8763 109.808 24.8927 109.731 24.9027C109.908 24.891 109.939 24.8861 109.847 24.8764C109.755 24.8668 109.799 24.8439 109.881 24.8992C110.066 25.1392 110.231 25.262 110.078 25.8079C110.043 25.934 109.985 26.0641 109.909 26.1876C109.79 26.367 109.742 26.4387 109.909 26.1876C110.266 25.7906 110.634 25.3755 110.981 25.0241C111.14 24.8707 111.3 24.7052 111.469 24.5462C111.469 24.5462 111.797 24.2338 111.611 24.4075L111.751 24.2933C112.127 23.9481 112.508 23.6193 112.895 23.3072C113.281 22.995 113.642 22.7176 113.978 22.4751C114.149 22.3559 114.315 22.2335 114.491 22.1177C114.667 22.0018 114.635 22.0189 114.712 21.9667C114.377 22.1838 114.854 21.8802 114.876 21.8688C115.604 21.4216 116.33 21.0393 117.047 20.7258L117.332 20.6049L117.557 20.5093C117.392 20.5673 117.627 20.4782 117.638 20.4725L117.996 20.3483C118.39 20.2224 118.783 20.1086 119.162 20.0251C119.368 19.9808 119.56 19.9668 119.767 19.9103C119.562 19.8902 119.974 19.8538 119.767 19.9103L120.061 19.9246C120.136 19.9283 120.208 19.9413 120.274 19.9634C120.147 19.8789 120.186 19.9049 120.274 19.9634C120.474 20.0967 120.274 19.9634 120.24 19.9406L120.202 19.7859C120.228 19.9586 120.228 19.9586 120.202 19.7859L121.561 17.4011C121.037 17.8487 120.507 18.2695 119.974 18.6615C119.708 18.8597 119.437 19.0547 119.172 19.2407C119.172 19.2407 118.676 19.5712 118.94 19.3974C118.814 19.4815 118.676 19.5712 118.54 19.6488C117.446 20.3402 116.355 20.9146 115.283 21.3633C115.069 21.4747 114.853 21.633 114.646 21.8289C114.44 22.0249 114.248 22.2545 114.081 22.5047C113.914 22.7549 113.776 23.0206 113.674 23.2864C113.572 23.5522 113.509 23.8129 113.488 24.0533C113.448 24.5361 113.579 24.9089 113.852 25.0913C114.126 25.2738 114.52 25.2513 114.95 25.0288L114.927 24.8838Z" fill="#002046"/>
<path d="M21.8137 84.897C24.384 83.9267 27.0198 82.3559 29.5624 80.2794C29.941 79.9811 30.2844 79.5736 30.541 79.118C30.7977 78.6623 30.9538 78.1829 30.9862 77.7515C31.1254 74.7375 28.1832 75.2076 25.9789 75.9089C23.8246 76.5881 21.5926 77.7645 19.4062 79.3728C18.3427 80.1716 17.2991 81.068 16.2898 82.0499C15.1646 83.1275 13.8468 84.4339 13.2898 85.9731C12.5243 87.9918 13.4045 89.0602 14.8056 88.9778C15.8861 88.7958 17.0474 88.2836 18.1918 87.4842C21.1216 85.7274 24.0394 83.9489 26.9452 82.1486C27.4154 81.9105 27.8776 81.479 28.2333 80.946C28.5889 80.413 28.8099 79.8206 28.8492 79.2949C28.8805 78.7718 28.7243 78.3623 28.4146 78.1557C28.1049 77.9491 27.6668 77.962 27.1957 78.1917C25.0611 79.5168 22.9772 80.7657 20.8632 82.0359L17.7898 83.9443C17.354 84.2034 16.9208 84.4229 16.5024 84.6799C16.2572 84.8325 16.7528 84.627 16.5024 84.6799L16.3113 84.7036C16.2223 84.7257 16.135 84.7409 16.0499 84.7492C16.2457 84.7423 16.2804 84.738 16.1779 84.7246C16.0753 84.7111 16.1228 84.6878 16.2165 84.7503C16.4294 85.0161 16.616 85.1543 16.464 85.7403C16.4291 85.8756 16.3691 86.0146 16.2889 86.1459C16.162 86.3361 16.1112 86.4122 16.2889 86.1459C16.6716 85.7276 17.0669 85.2903 17.4407 84.9211C17.6117 84.7602 17.7836 84.5862 17.9665 84.4196C17.9665 84.4196 18.3204 84.0921 18.1193 84.2741L18.2704 84.155C18.6763 83.7934 19.0887 83.45 19.5076 83.1246C19.9264 82.7992 20.3181 82.5107 20.6825 82.259C20.8684 82.1356 21.0488 82.0085 21.2402 81.8887C21.4316 81.769 21.396 81.7865 21.4799 81.7325C21.1153 81.9566 21.6349 81.6434 21.6586 81.6318C22.4524 81.1713 23.2456 80.781 24.0302 80.4648L24.3424 80.3432L24.5898 80.247C24.408 80.3045 24.6664 80.2157 24.6783 80.2099L25.0709 80.087C25.5038 79.9634 25.9359 79.853 26.3545 79.7749C26.5811 79.7336 26.7942 79.7246 27.0217 79.6702C26.7937 79.6418 27.2492 79.6158 27.0217 79.6702L27.3476 79.6952C27.4316 79.7016 27.5113 79.718 27.5857 79.7441C27.4424 79.6485 27.4865 79.6779 27.5857 79.7441C27.8117 79.8949 27.5857 79.7441 27.5471 79.7184L27.5004 79.5497C27.5345 79.7374 27.5345 79.7374 27.5004 79.5497L28.9306 77.0123C28.3633 77.4798 27.789 77.9181 27.2103 78.3251C26.9215 78.5311 26.6272 78.7334 26.3393 78.9262C26.3393 78.9262 25.8006 79.2679 26.0877 79.0883C25.9501 79.1752 25.8006 79.2679 25.652 79.3474C24.4608 80.0604 23.2691 80.6468 22.0945 81.0978C21.8607 81.2115 21.6256 81.3758 21.403 81.5812C21.1803 81.7866 20.9745 82.029 20.7974 82.2944C20.6204 82.5598 20.4756 82.8429 20.3714 83.1273C20.2672 83.4117 20.2057 83.6919 20.1905 83.9514C20.1614 84.4727 20.3185 84.8805 20.6277 85.0868C20.937 85.2932 21.3737 85.2816 21.8439 85.0547L21.8137 84.897Z" fill="#002046"/>
<path d="M133.119 91.3266C135.758 90.2226 138.405 88.4953 140.901 86.2488C141.274 85.9256 141.598 85.4909 141.825 85.0097C142.052 84.5286 142.169 84.0268 142.16 83.5795C142 80.458 139.226 81.5408 136.95 82.3522C134.724 83.1389 132.994 84.5367 130.339 86.4914C129.288 87.3589 128.022 88.2611 127.047 89.3158C125.958 90.4739 124.586 91.16 124.15 92.7731C123.541 94.8902 124.587 95.9603 126.071 95.8202C127.204 95.5897 128.388 95.0146 129.526 94.1433C132.467 92.2122 135.393 90.2591 138.304 88.2839C138.781 88.0193 139.229 87.5551 139.554 86.9901C139.878 86.4251 140.053 85.8039 140.041 85.259C140.021 84.7169 139.813 84.2997 139.462 84.0982C139.111 83.8967 138.646 83.9272 138.167 84.1832C136.029 85.6368 133.937 87.0097 131.815 88.4057L128.736 90.4992C128.298 90.7842 127.859 91.0281 127.44 91.3102C127.194 91.4776 127.701 91.2457 127.44 91.3102L127.239 91.3422C127.146 91.3685 127.055 91.3877 126.965 91.3996C127.173 91.3848 127.209 91.379 127.099 91.3691C126.988 91.3592 127.036 91.3333 127.143 91.3942C127.397 91.6607 127.609 91.7963 127.507 92.408C127.484 92.5493 127.434 92.6953 127.362 92.8342C127.246 93.0359 127.2 93.1165 127.362 92.8342C127.727 92.3867 128.104 91.9191 128.464 91.5228C128.63 91.3498 128.795 91.1632 128.973 90.9837C128.973 90.9837 129.316 90.6312 129.121 90.8273L129.27 90.6982C129.665 90.3085 130.069 89.9373 130.482 89.5845C130.895 89.2317 131.283 88.918 131.645 88.6434C131.831 88.5086 132.01 88.3701 132.201 88.2388C132.393 88.1075 132.357 88.127 132.441 88.0679C132.075 88.3139 132.597 87.9697 132.621 87.9567C133.419 87.4495 134.224 87.015 135.028 86.6573L135.348 86.5193L135.602 86.4102C135.414 86.4768 135.68 86.3748 135.692 86.3683L136.098 86.2259C136.546 86.0812 136.995 85.9501 137.433 85.8529C137.67 85.8014 137.896 85.7837 138.133 85.7186C137.887 85.6981 138.37 85.6534 138.133 85.7186L138.483 85.7316C138.573 85.735 138.659 85.7488 138.741 85.7729C138.579 85.6796 138.629 85.7083 138.741 85.7729C138.997 85.9199 138.741 85.7729 138.698 85.7478L138.631 85.5752C138.686 85.7679 138.686 85.7679 138.631 85.5752L139.895 82.8958C139.338 83.4014 138.771 83.877 138.197 84.3205C137.91 84.5448 137.617 84.7655 137.33 84.9761C137.33 84.9761 136.791 85.3505 137.079 85.1535C136.941 85.2488 136.791 85.3505 136.641 85.4385C135.445 86.2224 134.236 86.8753 133.031 87.3876C132.793 87.5143 132.56 87.6934 132.343 87.9145C132.127 88.1356 131.933 88.3943 131.771 88.6756C131.61 88.9569 131.484 89.2553 131.402 89.5534C131.32 89.8516 131.284 90.1436 131.294 90.4125C131.316 90.9526 131.525 91.368 131.875 91.5692C132.226 91.7705 132.69 91.7414 133.168 91.4883L133.119 91.3266Z" fill="#002046"/>
<path d="M175.12 57.4789C177.666 55.9923 180.092 53.8814 182.251 51.2735C182.576 50.8963 182.827 50.4147 182.966 49.9009C183.104 49.387 183.124 48.8685 183.021 48.4228C182.205 45.3262 179.511 46.8115 177.286 47.953C175.108 49.0625 173.579 50.711 171.192 53.0502C170.266 54.0699 169.121 55.1556 168.315 56.3513C167.411 57.667 166.11 58.552 165.986 60.2276C165.785 62.432 167.108 63.3495 168.639 62.9939C169.783 62.5991 170.909 61.8523 171.925 60.8162C174.618 58.4589 177.29 56.0817 179.942 53.6847C180.389 53.351 180.764 52.822 180.988 52.2101C181.211 51.5983 181.267 50.9521 181.141 50.4091C181.007 49.8703 180.702 49.4835 180.291 49.3331C179.88 49.1827 179.397 49.2808 178.947 49.6061C176.999 51.3695 175.084 53.0456 173.141 54.7491L170.338 57.2887C169.936 57.6371 169.525 57.9448 169.143 58.2876C168.919 58.4905 169.404 58.1852 169.143 58.2876L168.938 58.3488C168.846 58.3885 168.754 58.4209 168.662 58.4459C168.877 58.4009 168.915 58.3898 168.796 58.396C168.678 58.4022 168.723 58.3692 168.847 58.4147C169.17 58.6442 169.422 58.7488 169.441 59.375C169.446 59.5196 169.424 59.6728 169.377 59.8221C169.297 60.0404 169.265 60.1278 169.377 59.8221C169.668 59.3218 169.967 58.7998 170.264 58.3513C170.402 58.1543 170.537 57.9438 170.687 57.7386C170.687 57.7386 170.975 57.3364 170.81 57.5608L170.94 57.4102C171.275 56.9632 171.623 56.5335 171.984 56.1209C172.345 55.7083 172.688 55.3384 173.012 55.0114C173.179 54.8497 173.339 54.6853 173.513 54.5262C173.688 54.3671 173.654 54.3919 173.73 54.3206C173.396 54.6195 173.873 54.1998 173.896 54.1834C174.631 53.5604 175.387 53.0091 176.158 52.535L176.466 52.3506L176.71 52.2047C176.527 52.2985 176.785 52.1579 176.797 52.1497L177.194 51.9484C177.635 51.7386 178.081 51.5424 178.521 51.3817C178.76 51.2957 178.994 51.2452 179.229 51.1457C178.967 51.161 179.465 51.0462 179.229 51.1457L179.6 51.1079C179.695 51.0982 179.789 51.0994 179.88 51.1116C179.69 51.042 179.749 51.0634 179.88 51.1116C180.18 51.2213 179.88 51.1116 179.829 51.0929L179.723 50.9301C179.821 51.1147 179.821 51.1147 179.723 50.9301L180.496 48.0685C180.016 48.6547 179.518 49.2124 179.006 49.7392C178.751 50.0049 178.489 50.268 178.231 50.5202C178.231 50.5202 177.742 50.9727 178.003 50.7341C177.878 50.8493 177.742 50.9727 177.602 51.0825C176.507 52.0397 175.37 52.8679 174.209 53.555C173.985 53.7162 173.777 53.9291 173.595 54.1814C173.414 54.4338 173.263 54.7206 173.152 55.0252C173.04 55.3298 172.97 55.6463 172.946 55.9561C172.922 56.266 172.943 56.5632 173.01 56.8306C173.146 57.3671 173.452 57.752 173.862 57.9022C174.272 58.0524 174.754 57.9559 175.204 57.6336L175.12 57.4789Z" fill="#002046"/>
<path d="M63.6576 62.4368C66.6944 61.2044 69.7342 59.2599 72.5938 56.7205C73.0211 56.3552 73.3908 55.862 73.6477 55.3147C73.9045 54.7675 74.0346 54.1954 74.0187 53.6842C73.8001 50.1157 70.606 51.3224 67.9847 52.2244C65.4221 53.0988 63.4381 54.677 60.3922 56.8813C59.187 57.8609 57.7333 58.8778 56.6185 60.0722C55.3735 61.3836 53.7958 62.1524 53.3096 63.9909C52.6289 66.4032 53.85 67.6375 55.5631 67.4938C56.8689 67.2428 58.2314 66.5988 59.536 65.6157C62.9135 63.4416 66.2733 61.2421 69.6156 59.0172C70.1633 58.7201 70.6761 58.1946 71.0448 57.5526C71.4134 56.9105 71.6087 56.2027 71.5891 55.5799C71.5599 54.9603 71.3147 54.4813 70.907 54.2471C70.4992 54.013 69.9619 54.0428 69.4121 54.33C66.9571 55.9674 64.5548 57.5131 62.1182 59.0849L58.5836 61.4431C58.081 61.7639 57.5764 62.0378 57.0949 62.3555C56.8129 62.5441 57.396 62.2847 57.0949 62.3555L56.8629 62.3899C56.7562 62.4189 56.6508 62.4398 56.5472 62.4524C56.7871 62.4378 56.8293 62.4316 56.7014 62.4191C56.5735 62.4066 56.6288 62.3774 56.7522 62.4482C57.0485 62.7555 57.2959 62.9128 57.1847 63.6107C57.1593 63.7718 57.1035 63.9382 57.0218 64.0961C56.8903 64.3252 56.8376 64.4169 57.0218 64.0961C57.4385 63.5888 57.8683 63.0586 58.2805 62.6097C58.4701 62.4139 58.659 62.2024 58.8625 61.9993C58.8625 61.9993 59.2556 61.6004 59.0317 61.8222L59.2023 61.6764C59.6548 61.2355 60.1178 60.8157 60.5911 60.4171C61.0643 60.0185 61.5089 59.6644 61.9247 59.3547C62.1375 59.2026 62.3429 59.0464 62.5629 58.8985C62.783 58.7505 62.7414 58.7724 62.8376 58.7058C62.418 58.9828 63.0168 58.5953 63.0445 58.5808C63.9615 58.01 64.887 57.5223 65.8115 57.1225L66.1798 56.9684L66.4717 56.8465C66.2555 56.9205 66.5619 56.8069 66.5758 56.7996L67.043 56.6413C67.5596 56.4809 68.0769 56.3361 68.5818 56.2299C68.8553 56.1736 69.1163 56.1559 69.3892 56.084C69.105 56.058 69.662 56.0122 69.3892 56.084L69.7933 56.1028C69.8975 56.1076 69.9977 56.1243 70.0927 56.1528C69.904 56.0445 69.962 56.0778 70.0927 56.1528C70.3902 56.3236 70.0927 56.1528 70.0419 56.1236L69.9625 55.9257C70.0287 56.1465 70.0287 56.1465 69.9625 55.9257L71.394 52.878C70.7564 53.4496 70.1066 53.9868 69.4472 54.4873C69.1186 54.7404 68.7827 54.9893 68.4533 55.2268C68.4533 55.2268 67.8348 55.6487 68.1648 55.4268C68.0068 55.5341 67.8348 55.6487 67.6622 55.7476C66.2889 56.6301 64.8986 57.3628 63.5117 57.935C63.2387 58.0772 62.9708 58.2792 62.7234 58.5294C62.4761 58.7797 62.2542 59.0731 62.0707 59.3928C61.8871 59.7124 61.7456 60.052 61.6542 60.3918C61.5628 60.7315 61.5234 61.0648 61.5382 61.3723C61.5699 61.9896 61.8158 62.4666 62.223 62.7004C62.6302 62.9342 63.166 62.9061 63.7152 62.6222L63.6576 62.4368Z" fill="#002046"/>
<path d="M97.1193 71.3266C99.7579 70.2226 102.405 68.4953 104.901 66.2488C105.274 65.9256 105.598 65.4909 105.825 65.0097C106.052 64.5286 106.169 64.0268 106.16 63.5795C106 60.458 103.226 61.5408 100.95 62.3522C98.7244 63.1389 96.9941 64.5367 94.3394 66.4914C93.2882 67.3589 92.0215 68.2611 91.0467 69.3158C89.9582 70.4739 88.5863 71.16 88.1501 72.7731C87.5409 74.8902 88.5874 75.9603 90.0714 75.8202C91.2036 75.5897 92.3882 75.0146 93.5256 74.1433C96.4669 72.2122 99.3932 70.2591 102.304 68.2839C102.781 68.0193 103.229 67.5551 103.554 66.9901C103.878 66.4251 104.053 65.8039 104.041 65.259C104.021 64.7169 103.813 64.2997 103.462 64.0982C103.111 63.8967 102.646 63.9272 102.167 64.1832C100.029 65.6368 97.9369 67.0097 95.8149 68.4057L92.7361 70.4992C92.2984 70.7842 91.8594 71.0281 91.44 71.3102C91.1944 71.4776 91.7012 71.2457 91.44 71.3102L91.2389 71.3422C91.1463 71.3685 91.0549 71.3877 90.9651 71.3996C91.1729 71.3848 91.2095 71.379 91.0989 71.3691C90.9883 71.3592 91.0364 71.3333 91.1426 71.3942C91.3965 71.6607 91.6093 71.7963 91.5073 72.408C91.4839 72.5493 91.4342 72.6953 91.3622 72.8342C91.2464 73.0359 91.2001 73.1165 91.3622 72.8342C91.7271 72.3867 92.1035 71.9191 92.464 71.5228C92.6297 71.3498 92.795 71.1632 92.9728 70.9837C92.9728 70.9837 93.3163 70.6312 93.1207 70.8273L93.2696 70.6982C93.665 70.3085 94.0691 69.9373 94.4821 69.5845C94.895 69.2317 95.2827 68.918 95.6452 68.6434C95.8306 68.5086 96.0098 68.3701 96.2014 68.2388C96.3931 68.1075 96.357 68.127 96.4407 68.0679C96.0753 68.3139 96.5967 67.9697 96.6208 67.9567C97.4193 67.4495 98.2243 67.015 99.0278 66.6573L99.3479 66.5193L99.6015 66.4102C99.4139 66.4768 99.68 66.3748 99.692 66.3683L100.098 66.2259C100.546 66.0812 100.995 65.9501 101.433 65.8529C101.67 65.8014 101.896 65.7837 102.133 65.7186C101.887 65.6981 102.37 65.6534 102.133 65.7186L102.483 65.7316C102.573 65.735 102.659 65.7488 102.741 65.7729C102.579 65.6796 102.629 65.7083 102.741 65.7729C102.997 65.9199 102.741 65.7729 102.698 65.7478L102.631 65.5752C102.686 65.7679 102.686 65.7679 102.631 65.5752L103.895 62.8958C103.338 63.4014 102.771 63.877 102.197 64.3205C101.91 64.5448 101.617 64.7655 101.33 64.9761C101.33 64.9761 100.791 65.3505 101.079 65.1535C100.941 65.2488 100.791 65.3505 100.641 65.4385C99.4451 66.2224 98.2357 66.8753 97.0306 67.3876C96.7931 67.5143 96.5596 67.6934 96.3434 67.9145C96.1272 68.1356 95.9327 68.3943 95.7712 68.6756C95.6097 68.9569 95.4844 69.2553 95.4024 69.5534C95.3205 69.8516 95.2836 70.1436 95.2939 70.4125C95.3161 70.9526 95.525 71.368 95.8755 71.5692C96.2259 71.7705 96.69 71.7414 97.1676 71.4883L97.1193 71.3266Z" fill="#002046"/>
<path d="M11.9184 121.203C15.047 119.622 18.2344 117.265 21.2884 114.273C21.7437 113.841 22.1514 113.275 22.4507 112.658C22.75 112.042 22.9248 111.408 22.9489 110.852C23.0101 106.98 19.7265 108.545 17.0386 109.734C14.4115 110.887 12.307 112.763 9.09316 115.404C7.81313 116.566 6.28206 117.788 5.07548 119.177C3.7297 120.704 2.09424 121.665 1.46476 123.707C0.596207 126.39 1.71873 127.639 3.44049 127.348C4.76393 126.973 6.17471 126.164 7.55428 124.99C11.0968 122.356 14.6236 119.696 18.1349 117.009C18.7051 116.643 19.2583 116.03 19.6766 115.301C20.0949 114.573 20.3454 113.786 20.3746 113.109C20.394 112.436 20.1867 111.933 19.7979 111.709C19.4091 111.486 18.8703 111.561 18.2989 111.917C15.7195 113.894 13.1998 115.766 10.6439 117.67L6.93016 120.517C6.40321 120.906 5.8779 121.244 5.37226 121.628C5.07601 121.856 5.67852 121.528 5.37226 121.628L5.13792 121.684C5.02914 121.724 4.92224 121.755 4.81782 121.777C5.05853 121.742 5.10113 121.732 4.97441 121.728C4.84768 121.725 4.90521 121.689 5.02284 121.756C5.29468 122.068 5.52938 122.22 5.36368 122.989C5.32567 123.167 5.2569 123.353 5.16302 123.531C5.01371 123.791 4.95399 123.895 5.16302 123.531C5.61878 122.946 6.08947 122.334 6.53612 121.813C6.74078 121.584 6.94599 121.339 7.16503 121.102C7.16503 121.102 7.58875 120.636 7.34785 120.895L7.52957 120.723C8.01597 120.207 8.51106 119.713 9.01482 119.242C9.51859 118.77 9.99018 118.35 10.4296 117.98C10.6539 117.797 10.8713 117.611 11.1026 117.432C11.3338 117.254 11.2907 117.281 11.3919 117.201C10.9513 117.536 11.5795 117.066 11.6082 117.048C12.5686 116.355 13.5308 115.75 14.4851 115.242L14.865 115.046L15.1659 114.89C14.9443 114.987 15.2592 114.84 15.2736 114.831L15.7524 114.621C16.2808 114.406 16.8087 114.208 17.3211 114.053C17.5986 113.97 17.8606 113.93 18.1386 113.83C17.8569 113.824 18.4167 113.731 18.1386 113.83L18.5407 113.819C18.6443 113.816 18.743 113.827 18.8356 113.85C18.6557 113.747 18.7111 113.779 18.8356 113.85C19.1193 114.013 18.8356 113.85 18.7872 113.822L18.7235 113.613C18.7723 113.848 18.7723 113.848 18.7235 113.613L20.3914 110.179C19.7101 110.852 19.0191 111.488 18.3216 112.086C17.9737 112.387 17.6188 112.685 17.2714 112.969C17.2714 112.969 16.6208 113.478 16.9677 113.21C16.8014 113.339 16.6208 113.478 16.4407 113.599C15.0004 114.668 13.5548 115.576 12.1253 116.308C11.8416 116.484 11.5583 116.725 11.2917 117.018C11.0251 117.31 10.7806 117.647 10.5724 118.01C10.3641 118.372 10.1961 118.754 10.0783 119.131C9.96041 119.509 9.89496 119.875 9.8857 120.209C9.86898 120.879 10.0772 121.38 10.4654 121.603C10.8536 121.826 11.3909 121.753 11.9614 121.401L11.9184 121.203Z" fill="#002046"/>
<path d="M92.9562 118.314C89.5749 119.553 86.0293 121.576 82.5332 124.261C82.014 124.647 81.5248 125.176 81.1385 125.769C80.7523 126.362 80.4899 126.987 80.3905 127.551C79.8064 131.49 83.5902 130.91 86.4723 130.019C89.2882 129.156 92.2697 127.644 95.252 125.566C96.705 124.534 98.1459 123.374 99.5551 122.102C101.124 120.706 102.967 119.013 103.88 117.007C105.121 114.376 104.153 112.968 102.37 113.06C100.979 113.285 99.4415 113.941 97.8862 114.973C93.9438 117.236 90.0136 119.528 86.0956 121.848C85.4688 122.154 84.826 122.713 84.3041 123.405C83.7822 124.098 83.4225 124.87 83.3016 125.557C83.1912 126.241 83.3333 126.778 83.6969 127.052C84.0605 127.326 84.6162 127.314 85.2429 127.019C88.1214 125.312 90.9255 123.703 93.7704 122.067L97.915 119.607C98.5011 119.273 99.0787 118.991 99.6425 118.66C99.9731 118.464 99.3187 118.727 99.6425 118.66L99.8873 118.631C100.003 118.604 100.115 118.585 100.224 118.575C99.9755 118.582 99.931 118.587 100.059 118.606C100.187 118.624 100.124 118.654 100.014 118.572C99.7803 118.221 99.5631 118.039 99.8347 117.274C99.8971 117.098 99.9918 116.916 100.111 116.746C100.297 116.498 100.372 116.4 100.111 116.746C99.5704 117.288 99.0114 117.855 98.4887 118.334C98.2507 118.542 98.0098 118.768 97.756 118.984C97.756 118.984 97.2642 119.408 97.5431 119.172L97.3358 119.326C96.7737 119.794 96.2058 120.238 95.632 120.659C95.0583 121.079 94.524 121.452 94.0291 121.777C93.7774 121.936 93.5321 122.1 93.2739 122.255C93.0156 122.409 93.063 122.387 92.9497 122.456C93.441 122.167 92.7416 122.571 92.7101 122.586C91.644 123.179 90.5882 123.68 89.5533 124.084L89.1421 124.239L88.8163 124.362C89.0538 124.289 88.7151 124.402 88.6993 124.41L88.1862 124.566C87.6221 124.722 87.0608 124.862 86.521 124.959C86.2289 125.01 85.9582 125.019 85.6632 125.088C85.9476 125.128 85.3682 125.156 85.6632 125.088L85.2546 125.051C85.1492 125.042 85.0507 125.02 84.96 124.985C85.1283 125.111 85.0765 125.072 84.96 124.985C84.6947 124.785 84.96 124.985 85.0053 125.019L85.0416 125.24C85.024 124.994 85.024 124.994 85.0416 125.24L82.8896 128.541C83.6702 127.937 84.4557 127.37 85.2426 126.845C85.6356 126.579 86.0351 126.318 86.4253 126.069C86.4253 126.069 87.1526 125.628 86.7653 125.86C86.9511 125.748 87.1526 125.628 87.3513 125.526C88.9541 124.608 90.5403 123.855 92.0866 123.279C92.3976 123.133 92.7171 122.921 93.0264 122.655C93.3357 122.389 93.6288 122.074 93.8887 121.729C94.1485 121.384 94.3699 121.016 94.5402 120.645C94.7105 120.274 94.8261 119.909 94.8805 119.57C94.9879 118.888 94.8446 118.353 94.4815 118.08C94.1184 117.806 93.5646 117.816 92.9393 118.107L92.9562 118.314Z" fill="#002046"/>
<path d="M181.815 88.965C185.331 87.9018 184.798 81.6286 185.341 83.7216C185.737 83.3924 185.689 82.9904 185.894 82.4941C186.098 81.9977 184.363 85.5505 184.313 85.0378C183.887 81.7658 189.664 80.4953 186.839 81.2683C184.243 82.2254 181.808 83.2417 179.543 85.0811C174.773 88.4707 170.528 89.0946 166.524 93.6208C166.184 94.1013 165.968 94.6683 165.902 95.2502C165.837 95.8321 165.925 96.4027 166.156 96.8902C166.386 97.3776 166.749 97.76 167.198 97.9891C167.647 98.2181 168.162 98.2836 168.679 98.1772C176.35 96.4644 183.576 91.9188 189.17 85.2869C189.621 84.6449 189.848 83.8581 189.803 83.0956C189.758 82.3331 189.446 81.6558 188.932 81.2093C188.405 80.7809 187.727 80.6188 187.039 80.7571C186.351 80.8953 183.153 82.612 182.687 83.2399C182.194 83.8276 184.23 83.1014 183.693 83.637C183.024 84.3062 182.321 84.9616 181.584 85.572C180.304 86.6867 178.954 87.6851 177.547 88.5562C174.614 90.4102 171.473 91.7065 168.266 92.3864L170.432 96.9475C173.58 93.4635 177.011 90.3232 180.666 87.5789C182.426 86.2527 184.242 85.0352 186.105 83.9326C186.499 83.6904 186.904 83.4742 187.316 83.2853C187.561 83.1692 187.048 83.3299 187.5 83.2215L188.102 83.0977C188.381 83.0265 187.81 82.9776 188.214 83.1439C188.304 83.1808 188.127 82.8927 187.748 82.9533C187.368 83.014 187.579 82.8841 187.748 82.9533L188.213 83.0506C188.013 82.8621 187.877 82.6006 187.825 82.3026L186.488 82.234C184.108 83.8769 184.19 84.362 181.562 85.1846C180.878 85.3505 181.574 87.2536 181.126 87.8929C180.677 88.5322 178.981 85.8893 179.013 86.6511C179.07 87.4126 179.396 88.083 179.92 88.5164C180.445 88.9498 181.126 89.1112 181.815 88.9653L181.815 88.965Z" fill="#002046"/>
</svg>
